<svg id="Layer_1" data-name="Layer 1" xmlns="http://www.w3.org/2000/svg" viewBox="0 0 565.77 475.38"><defs><style>.cls-1{fill:#fefefe;}.cls-2{fill:#ebeff0;}.cls-3{fill:#323232;}.cls-4{fill:#dee4e5;}.cls-5{fill:#bdc3c7;}.cls-6{fill:#c6cccf;}.cls-7{fill:#1d1b1d;}.cls-8{fill:#4b451c;}.cls-9{fill:#6a4f2c;}.cls-10{fill:#363a15;}.cls-11{fill:#4b4b72;}.cls-12{fill:#354c7a;}.cls-13{fill:#244676;}.cls-14{fill:#6b463c;}.cls-15{fill:#133f6d;}.cls-16{fill:#2b3317;}.cls-17{fill:#14220e;}.cls-18{fill:#52405d;}.cls-19{fill:#513547;}.cls-20{fill:#603b3a;}.cls-21{fill:#1c2a1d;}.cls-22{fill:#071913;}.cls-23{fill:#4d2c36;}.cls-24{fill:#394776;}.cls-25{fill:#0e211d;}.cls-26{fill:#18374f;}.cls-27{fill:#173e65;}.cls-28{fill:#142f3e;}.cls-29{fill:#02120a;}.cls-30{fill:#0f2528;}.cls-31{fill:#585139;}.cls-32{fill:#434430;}.cls-33{fill:#745540;}.cls-34{fill:#323b2d;}.cls-35{fill:#2c341f;}.cls-36{fill:#4f556d;}.cls-37{fill:#634e63;}.cls-38{fill:#3a4e6f;}.cls-39{fill:#26466e;}.cls-40{fill:#6c4848;}.cls-41{fill:#214266;}.cls-42{fill:#634552;}.cls-43{fill:#1b2e2d;}.cls-44{fill:#243e54;}.cls-45{fill:#2a3d47;}.cls-46{fill:#2a3a3b;}.cls-47{fill:#484a40;}.cls-48{fill:#39423c;}.cls-49{fill:#61596c;}.cls-50{fill:#665b64;}.cls-51{fill:#73564e;}.cls-52{fill:#735840;}.cls-53{fill:#715959;}.cls-54{fill:#57565a;}.cls-55{fill:#6e5b50;}.cls-56{fill:#334a68;}.cls-57{fill:#3c4649;}.cls-58{fill:#62584c;}.cls-59{fill:#374859;}.cls-60{fill:#454d55;}.cls-61{fill:#485269;}.cls-62{fill:#394d6b;}.cls-63{fill:#fdfdfd;}.cls-64{fill:#fcfcfc;}</style></defs><title>macbooklogo</title><path class="cls-1" d="M307.06,134.18q139.82,0,279.64-.07c2.65,0,3.25.6,3.24,3.24q-0.11,234.45,0,468.89c0,2.65-.6,3.24-3.24,3.24q-279.64-.11-559.28,0c-2.65,0-3.25-.6-3.24-3.24q0.11-234.45,0-468.89c0-2.65.6-3.25,3.24-3.24Q167.24,134.23,307.06,134.18Z" transform="translate(-24.17 -134.11)"/><path class="cls-2" d="M582.75,480.76q0,18.66.06,37.32c0,8.24-5.42,13.66-13.66,13.67H368.8c-7,0-7,0-7,7.07-3.08-.35-1.61-2.76-2-4.34-1-2-3-1.56-4.67-1.57-8.8-.07-17.6,0-26.41,0-24.41,0-48.82,0-73.24,0a6.52,6.52,0,0,1-3.11-.4c-1.26-1.33-2.89-.73-4.35-0.73q-101.11,0-202.21,0c-9.66,0-14.52-4.83-14.51-14.43,0-11.41.25-22.82,0-34.23C29.46,377,31.09,270.83,30.56,164.7c0-1.25-.42-2.61.64-3.7,1.14,0.93,1.14,2.26,1.21,3.55,0.09,1.53,0,3.06,0,4.59q0,152.06,0,304.13a38.17,38.17,0,0,0,.15,4.93,3.53,3.53,0,0,0,.51,1.16c1.9,1,3.94.53,5.9,0.53q268.42,0,536.84.05C578.17,479.93,580.6,479.32,582.75,480.76Z" transform="translate(-24.17 -134.11)"/><path class="cls-3" d="M582.75,480.76c-1.76,0-3.53.13-5.29,0.13q-270.77,0-541.53,0c-1.5,0-3.24.84-4.58-.65,1.47-.67,3-0.32,4.52-0.32q270.76,0,541.52,0a25.72,25.72,0,0,0,3.7-.16c0.44-.27-0.07-0.91.11-0.47,0.07,0.17,0,.23-0.14.32-1,.63-2,0.27-3,0.27q-271.64,0-543.28,0c-1.16,0-2.36.29-3.47-.33-0.06-1.29-.18-2.57-0.18-3.86q0-154.5,0-309c0-1.88.06-3.76,0.09-5.64,3.05-7.55,6.66-10,14.74-10H567.75c10.2,0,15,4.9,15,15.21q0,156.76,0,313.51C582.79,480.05,582.76,480.4,582.75,480.76Z" transform="translate(-24.17 -134.11)"/><path class="cls-4" d="M361.06,535.25c-0.72,1.38-1.11,2.69.71,3.57C363,549,364,559.2,365.57,569.33c1,6.36,5.64,10.55,10.22,14.65,3.87,3.47,8.21,6.55,10.67,11.36-1.69,2.08-4.28,2.11-6.48,2.22-4.1.21-8.15,0.94-12.27,0.94q-61,0-122-.05a140.36,140.36,0,0,1-18.17-1.69c-1.57-1.83-.19-3,1-4.14,4.31-4.12,8.52-8.36,13-12.26a20.06,20.06,0,0,0,7.06-13.26c1.3-10.62,2.5-21.26,3.74-31.88,1.36-1.23,3.06-1.07,4.68-1.07q49.65,0,99.3,0C358,534.14,359.7,534,361.06,535.25Z" transform="translate(-24.17 -134.11)"/><path class="cls-5" d="M361.06,535.25l-108.66,0q0-1.36,0-2.71a5.81,5.81,0,0,1,3.72-.76q50.76,0,101.52-.06C360.41,531.68,361.53,532.48,361.06,535.25Z" transform="translate(-24.17 -134.11)"/><path class="cls-6" d="M227.58,596.75c0.13-.59.22-1,1.09-1,46.9,3.58,93.86.76,140.79,1.53a61,61,0,0,0,17-2c0.27,2.54-1.85,2.52-3.28,2.71a118.88,118.88,0,0,1-14.67,1.4q-61.74.16-123.48,0c-4.77,0-9.55-.85-14.32-1.31A4.48,4.48,0,0,1,227.58,596.75Z" transform="translate(-24.17 -134.11)"/><path class="cls-7" d="M31.3,479.49H581.22l0,0.68H35.58l-4.24,0Z" transform="translate(-24.17 -134.11)"/><path class="cls-8" d="M201.51,468.87l-96.06,0c-3.44-2.59-5.62-6.71-10-8.22a1.88,1.88,0,0,1-1.07-1.35c-1.17-5.07-5-8.64-7.31-13.08a20.56,20.56,0,0,1-1.1-3c-1-2.84-1.06-6.33-5.48-6.35-1.18,0-1.82-1.4-2-2.66-0.2-1.87-.16-3.8-0.46-5.6-0.5-3,1.07-6-1.61-9.11-1.31-1.5-1.08-5.54-.29-8.44,0.61-2.25.72-4.38-1.13-6.23a3,3,0,0,1-.7-3c0.94-3,.43-6.08,1.29-9,0.76-2.58,1.28-5.08-.28-7.8-1.27-2.21-.19-4,2.24-4,1.61,0,1-.83,1.09-1.49,0.33-4.3,2.09-8.3,3.41-12.24,1.13-3.39,2.73-7.27,6.16-9.63a12,12,0,0,0,3.79-5c2.34-5.13,6.94-8.71,9.47-13.33,2.69-4.9,7.32-8.31,9.1-13.83,1.26-3.93,5.16-6.27,8.15-9,2.25-2.06,5.44-3,6.36-6.53,0.43-1.67,2.68-2.15,4-3.33,2.36-2.13,3.78-5.14,6.52-6.9,2.53-.88,3.89.08,5.39,2.33a29.9,29.9,0,0,0,8.79,8.81,1.85,1.85,0,0,1,.62.31c4.37,6.81,13.41,8.57,17.28,15.94,0.66,1.25,2.07,1.87,3.13,2.79,2,1.73,2.19,3.5,0,5.2-2,1.53-2.46,3.47-2.08,5.89,0.48,3.07,1.1,6.16-.78,9.14-0.93,1.47-.32,3.15.34,4.71,0.55,1.31,1.13,3.19-.68,3.56-3.47.71-1.22,2.31-.88,3.65,0.41,3.39-1.24,6.48-2.45,9.24a31.1,31.1,0,0,0-2.41,11.81,13.86,13.86,0,0,1-1.59,5.33c-1,2.17-1.41,4.25.29,6.28a1.74,1.74,0,0,1,.64,1.21c-1.52,3,.2,6.73-2.12,9.4-1.33,1.53-.76,2,0.62,2.86,3.86,2.36,4.06,3.18,2.39,7.31-1.12,2.78.2,6,3.16,7.57,3.11,1.7,3.18,2,1,4.9-0.86,1.14.06,4.72,1.48,5.14a9.18,9.18,0,0,1,5.93,6.17c1,3,3.12,4.47,5.41,5.79,1.16,0.67,1.69,1.06,1.26,2.29-0.61,1.72.08,2.56,1.73,3.16a11.49,11.49,0,0,1,6.69,5.93c0.81,1.71,1.93,2.29,3.93,2.09,2.51-.26,4.69.59,5.08,3.63,0.17,1.36,1.41,1.77,2.25,2.56C201.27,465.84,202.78,466.89,201.51,468.87Z" transform="translate(-24.17 -134.11)"/><path class="cls-9" d="M201.51,468.87a3.39,3.39,0,0,0-1.65-3.3c-1.66-1.09-3.79-1.45-3.12-4.53,0.2-.92-2.51-2.56-4.32-1.63-2.34,1.21-3.18,0-4-1.78-1.52-3.36-3.79-5.72-7.63-6.48-2-.4-2.26-2.24-1.07-4.83-0.12-2-4.3,3.26-2.75-1.84,0.18-.59-0.68-0.81-1.24-1s-1.85-.44-1.85-0.68c-0.07-3.29-2.37-5.27-4.16-7.59-0.36-.47-0.21-1.76-1.11-1.25-3.35,1.88-2.62-1.19-3.08-2.53a9.26,9.26,0,0,0-.87-2.61c-0.85-1.23-.35-2,1.09-2.07,0.63,0,1.44.65,1.67-.46s-0.5-1.49-1.27-1.88c-0.42-.22-0.84-0.41-1.27-0.6-4.18-1.81-5.28-5.83-2.66-9.73,1.09-1.62-.22-4.29-2.75-5.12-1.15-.38-2.52-0.51-2.71-1.82a2.35,2.35,0,0,1,2-2.56,1.49,1.49,0,0,0,.62-0.31c1.91-1.83-2.38-3.53-.16-5.27,2-1.55,1.94-2.79.15-4.52s-1.09-3.7-.16-5.55c2.17-4.29,1.94-9,2.33-13.55a4.58,4.58,0,0,1,.53-2c1.15-1.86,3.57-3.28,1.8-6.06a2.93,2.93,0,0,1,1-1.32,4.12,4.12,0,0,0,1.32-3.81,50,50,0,0,1,16.69-5.06c9.35-1.35,18.74-3,28.29-2,3.84,0.4,4.23.79,4.71,4.68-0.34,5.9.56,11.69,1.57,17.47a127.41,127.41,0,0,1,2,19.57c0,2.29-.24,5.1,2.38,6.15s4.36-1,6.11-2.59a33.28,33.28,0,0,0,3.64-3.82c1.65-2,3.79-2.58,6-1.36,7,3.9,14.29,7,21.26,10.89,1.55,2.18,3.64,3.87,5.16,6.14a5.82,5.82,0,0,0,5.18,2.49c4-.24,6.76,1.87,8.77,4.85a7.56,7.56,0,0,0,7.35,3.73c1.72-.13,2.53.5,2.91,2.22,0.68,3.1,1.92,3.92,5.28,3.4,2.22-.34,3.93-0.49,5.35,1.9,1.21,2,4.08.24,5.84,1.59a2.27,2.27,0,0,1,1.1,2.08c-0.22,2.19.79,3,2.88,2.84a1.63,1.63,0,0,1,1.84.73c1.59,3.92,5.36,6,7.77,9.17,3.67,4.87,8.32,9,11.44,14.24a6.89,6.89,0,0,0,3.51,2.67c2.13,1,3.19,2.51,1.08,4.62Z" transform="translate(-24.17 -134.11)"/><path class="cls-10" d="M135.82,300.13c-3,3.34-5.1,7.65-9.62,9.49a1.59,1.59,0,0,0-.71.75c-1.86,3.77-3.82,4.21-6.48,7-2.84,3-7.47,4.91-8,10-0.31,2.78-2.86,4.19-4.64,6-0.4.41-1.36,0.6-1.41,1-1,8-10,10.84-11.88,18.52A10.21,10.21,0,0,1,88.15,359a5.31,5.31,0,0,0-2.88,4.18,4.07,4.07,0,0,1-1.37,2.63c-0.53.62-1.61,1.4-1.49,1.86,1.41,5.54-5,9.64-2.23,15.21-1.94.42-2.55-2.65-3.91-1A3,3,0,0,0,77,386.2c1.91,1.54.46,3.57,0,4.82-1.36,3.54-.22,7.38-1.8,10.83a2.48,2.48,0,0,0,.33,2.3c3,1.93,2.65,4.88,1.52,7.17-1.38,2.78,1.86,5.41-.33,7.92a1.31,1.31,0,0,0,.57.75c3.45,0.07,2,1.55,1.71,3.74-0.52,3.69.1,7.6,0.63,11.36,0.23,1.62,2.09,1.64,3.51,1.53,2.07-.15,2.58.55,2.82,2.77A22.86,22.86,0,0,0,88.67,447c2,3.89,6.06,6.66,6.22,11.48,0,1.5,1.27,1.7,2.36,2.21a18.37,18.37,0,0,1,8.21,8.24c-18.8,0-37.6-.05-56.4.08-3,0-3.69-1-3.69-3.81q0.13-62,.06-124.07c2.52-3.36,6.07-5.83,8.19-9.54A2.47,2.47,0,0,1,55,330.5c4.61-1.42,6.27-5.31,7.8-9.3,0.29-.76.37-2,1.16-2,4.25-.27,6.31-3.76,8.35-6.42,2.75-3.58,6.6-4.85,10-7.09,3.27-2.14,6.08-5,9-7.58,2.14-1.86,4.58-3.75,6.86-4.47,3.35-1.07,5.25-3.25,7.45-5.44a10.74,10.74,0,0,1,5-1.43c6.31-.46,12.48-1.7,18.69-2.78a8.67,8.67,0,0,1,4.83.34c2.43,4.19,5.75,8.15,3.67,13.57A9.53,9.53,0,0,1,135.82,300.13Z" transform="translate(-24.17 -134.11)"/><path class="cls-11" d="M568.62,324.84l0,21.17c-3.1,3.85-7.51,3.44-11.68,3.38-2.14,0-4.19-.34-6.14.83a2.25,2.25,0,0,1-1.66.48c-4.07-1.41-7.77,1.69-11.77.94a1.74,1.74,0,0,0-1.37.24c-3.62,2.87-7.82,2.78-12.09,2.48-3-.21-5.79.77-8.66,1.34a2,2,0,0,1-1-.34c-0.53-3.57-1.49-6.56-5.29-8.43-2.15-1.06-2.29-4.4-3-6.81-0.31-1-.4-2-1.36-2.68a6.64,6.64,0,0,1-3.12-7c0.6-3.77-2.63-5.2-4.4-7.48-2.61-3.35-4.59-7.19-8-9.94-1-.8-1.75-1.92-2.94-2.46a10,10,0,0,1-5.36-6.23,4.94,4.94,0,0,0-3.93-3.53,14.59,14.59,0,0,1-6.32-3.68,100.41,100.41,0,0,0-21-15.18c-3.44-1.79-6.84-3.49-9.67-6.28a8.46,8.46,0,0,0-6.17-2.22c-1.66,0-3.52.09-4.71-1.09a21.43,21.43,0,0,0-8.88-5.11c-1.54-.49-3.35-0.65-4.53-1.32-5-2.86-11.21-1.27-16.06-4.64-1.59-1.11-3.48-1.9-5.21-2.88a7.8,7.8,0,0,0-6.42-1c-2.53.79-4.57-.49-6.51-1.87-0.56-.4-1.05-1-0.34-1.75,6-.58,11.82-2.11,18-0.5a29.32,29.32,0,0,0,12.51.46,7,7,0,0,1,5.1.55,5.38,5.38,0,0,0,3,.83c6.14-.38,12.06,1.54,18.15,1.65a12.34,12.34,0,0,1,5.8,1.31,14.22,14.22,0,0,0,8.05,1.92c6.62-.45,12.21,2.82,18.18,4.73a9.75,9.75,0,0,0,1.34.42,17,17,0,0,1,5.58,2,109.24,109.24,0,0,0,15.47,5.51c3.08,0.34,5,3,7.63,4a57.71,57.71,0,0,1,12.82,7,84.2,84.2,0,0,0,14.63,7.4,3.31,3.31,0,0,1,1.19.73c5.86,6.48,14.4,9.45,20.58,15.29,4.78,4.52,11.28,7.23,14.47,13.47C564.63,322.57,567.14,323.17,568.62,324.84Z" transform="translate(-24.17 -134.11)"/><path class="cls-12" d="M492.44,273.29c-6.28-.78-11.89-3.52-17.59-6-1.17-.5-2.25-1.22-3.61-1.09-4.25-2.43-8.94-4-13-6.9-1.62-1.17-3.4-2.1-4.37-4a2.2,2.2,0,0,0-1.17-1.26c-5.29-1.38-7.94-6.23-12.06-9.14a13.33,13.33,0,0,1-4.15-5.17,3.94,3.94,0,0,0-1.4-2c-5.28-2.56-6.44-8.46-10.09-12.34-1.18-1.26-1.81-3.09-.3-4.78,4-1,7.94-2,12-.31a1.84,1.84,0,0,0,2.46-.59c1.7-2.28,3.51-1.4,5,.23,1.07,1.21,1.91,1.29,3.3.6,4.06-2,8.41-1.55,12.67-1,2.88,0.35,5.7,1.24,8.64,1.22,3.2-.05,6.07.12,8.52,3,1.62,1.9,4.73.81,7.11,0.8a18.54,18.54,0,0,1,8.08,1.91c4,1.83,8.43,1.77,12.64,2.76,1.36,0.32,2.88.19,4,1.07a25.07,25.07,0,0,0,11.58,4.8,3,3,0,0,1,2.06,1.25c1.13,1.7,3,1.35,4.55,1.88,5.15,1.7,11.24,1.92,14.31,7.6a1.83,1.83,0,0,0,1.54,1.26c4.24,0.1,7.52,3.21,11.65,3.66A1.77,1.77,0,0,1,556.5,252c0.79,3.59,4.07,3.91,6.63,5.17,2.12,1,3.55,2.93,5.5,4.17v9.88a17.45,17.45,0,0,1-16.81,4.36,23.54,23.54,0,0,0-7.29-.34,18.6,18.6,0,0,1-8-.55,13,13,0,0,0-7.94.08c-4.08,1.34-7.33-.64-10.88-1.3-1.2-.22-2.14-0.71-3.19.21a2.72,2.72,0,0,1-3,.19c-2.65-1-5.21,1.75-7.86.17a0.38,0.38,0,0,0-.23.13c-2.06,1.65-2.2,1.77-3.87-.2C497.31,271.22,494.9,272.48,492.44,273.29Z" transform="translate(-24.17 -134.11)"/><path class="cls-13" d="M568.63,261.29c-1.7-.67-4.19-0.15-4.46-3-3.46,1.38-4.7-5-8.82-1.82,0.71-2.9,2.28-5.52-2.53-5.05-1.33.13-3.81-1.17-5.61-2.15a2.88,2.88,0,0,0-.53-0.45c-3.3-.5-5.47-1.85-7.61-5-1.73-2.51-6.31-3-9.58-4.54a2.68,2.68,0,0,0-2.3-.38c-2.18.88-3.9,0.56-4.85-1.84-0.48-1.21-1.56-1.11-2.62-1.31a29.13,29.13,0,0,1-10.16-4.09c-4-2.5-9.09-2.41-13.77-3.09-0.91-.13-1.93,0-2.64-0.58-4.07-3.45-8.88-2.55-13.56-2.39-1.35,0-3.14-.12-3.47-1.12-1.29-3.94-4.41-2.58-7-2.82-0.84-.74-2-0.71-2.94-1.11-2.81-1.18-3.12-2.29-1.71-5,1.12-2.14.9-4.54,0.78-6.85-0.06-1.19,0-2.24,1.31-2.48,2.15-.4,2.46-2.11,3.26-3.71,1.87-3.74,3-7.76,4.71-11.55a5.26,5.26,0,0,1,3.22-3.06c2.66-.61,5,0.83,7.59,1.13a17.31,17.31,0,0,0,8-.61,8.22,8.22,0,0,1,7.74.86c5.19,3.47,11.09,3.75,17,5s12.87-.62,17.89,4.48a3.39,3.39,0,0,0,3,.67,5.07,5.07,0,0,1,5.51,2.24,2.14,2.14,0,0,0,1.7,1.11,27.74,27.74,0,0,1,16.26,5c2,1.46,4.51.26,6.26,1.93Q568.64,235.52,568.63,261.29Z" transform="translate(-24.17 -134.11)"/><path class="cls-14" d="M334.25,468.84c0.9-2.56.24-4.12-2.7-4.18-1.22,0-1.7-.76-2.3-1.77-3.52-6.06-8.34-11-13.16-16.08-1.88-2-3.08-4.5-5.85-5.57-0.86-.33-0.25-1.21-0.15-1.87s-0.1-1.47-1.11-1.2c-4.1,1.1-4.72-.94-4-4.31a2.14,2.14,0,0,0-.4-1c0.65-2.17,2.19-1.48,3.21-.69,1.66,1.3,3.17.78,4.95,0.48,6.69-1.15,13.47-2,20.22-1.17,2.77,0.33,5.84-1.75,8.38.91,0.44,0.46.94-.45,1.43-0.66,3.31-1.41,6.58-3.1,10.36-1.69,0.79,0.29,1.8.59,2.38,0.05,3.76-3.48,8.9-1.15,13-3.22a11.49,11.49,0,0,1,9.78,1.37,9.59,9.59,0,0,0,4.31,1.1c5.31,0.61,10.7,1.12,15.67,3.26,3,1.29,6,0,9,.47a21,21,0,0,0,9.7-.28A2.56,2.56,0,0,1,419,433c4.57,3,9.21,1.39,14,.67,3.82-.57,7.51,1.08,10.8,3.21,0.38,0.7.21,1.89-.28,1.8-3.89-.71-3.14,5.59-6.29,4.53-3.45-1.16-4.91.54-6.75,2.55a6.08,6.08,0,0,1-3.63,2.05c-5.18.56-9.17,3.35-13.05,6.44a9.26,9.26,0,0,1-3.58,1.34c-5.39,1.46-11.14,1.77-16.24,4-4.42,2-8.87,4.15-13.57,4.53-5.32.43-9.47,4.62-15,3.91a3,3,0,0,0-1.54.8Z" transform="translate(-24.17 -134.11)"/><path class="cls-15" d="M568.64,209.74c-2.75-.29-5.29.28-8.05-2.06-1.63-1.39-4.6-4-8-2.92-0.74.24-1.91,0.21-2.27-.56-1.14-2.44-2-2.24-3.38-.13-0.89,1.33-2,.15-2.48-0.71-1.4-2.55-3.12-3.9-6.22-2.86-1.26.42-2.59-.32-3.55-1.21-3.29-3-7.08-3.61-11.28-2.57a1.86,1.86,0,0,1-1,.19c-4.26-3.65-9.76-1.15-14.47-2.93a52.85,52.85,0,0,1-6.75-3.47c-2.53-1.39-4.63-2.23-7.75-1-3.82,1.54-8.11,1.07-12.1-.24a9.49,9.49,0,0,0-3.74-.74c-0.61.47-1.41,0.37-2.08,0.68-4,.7-7.27-1.39-10.6-3.1-0.93-.48-1.76-1.53-2.82-1.29-3.17.73-5-1.28-7.09-3-0.78-1.27-.14-2.07,1-2.39,2.93-.81,4-3,4.43-5.69,0.28-1.94,1.21-2.89,3.26-2.81,1.81,0.07,6.55-1.55,7.84-2.71,2-1.84,4.07-3.57,6.76-4.34q43.51,0,87-.09c2.57,0,3.45.64,3.43,3.33C568.61,181.33,568.66,195.54,568.64,209.74Z" transform="translate(-24.17 -134.11)"/><path class="cls-16" d="M105.45,288.83c-1.18,2.56-2.38,5.1-5.86,5a1.77,1.77,0,0,0-1,.13c-3.79,2.83-7.83,5.4-11.25,8.63-3.13,3-6.1,5.69-10.55,6.43-1.7.28-1.4,2.59-2.52,3.6-2.15,1.95-4,5.17-6.21,5.88-5.27,1.68-5,6.82-7.85,9.89-0.39.42-.68,1.18-1.12,1.26-4.93,1-6.6,5.59-9.68,8.6a12.18,12.18,0,0,1-3.95,2.87q0-29,0-57.91c2,1.45,3.64.53,5.27-.85a16.46,16.46,0,0,1,4.54-2.64c5.7-2.31,10.42-6.46,15.92-9,4.53-2.06,7.68-6.6,13-7a2.87,2.87,0,0,0,1.56-.78c5.7-5.09,13.48-5.81,19.94-9.55,5.05-2.92,11.35-4.09,17.3-5.37,2.21,0.65,1.74,2.09,1.09,3.62a155.11,155.11,0,0,1-9.59,18,1.87,1.87,0,0,0-.55,1.59c2.06,5.28-3.28,8.45-3.73,13-0.09.87-1.2,1.43-2.17,1.61C106.38,286.2,105.74,287.35,105.45,288.83Z" transform="translate(-24.17 -134.11)"/><path class="cls-17" d="M45.45,281.05q0-31.42,0-62.84c5.2,0.85,9.33-1.77,13.41-4.33,1.19-.75,2.23-2.09,3.65-1.86,4.91,0.8,8.49-2.17,12.68-3.72,6.85-2.53,13.77-5.36,21.24-5.79,1.94-.11,3.73-0.35,5.23-1.67,2.05-1.82,4.76-1.85,7.18-2.67a1.72,1.72,0,0,1,2,1.93c-0.26,2.4,1,3.92,2.55,5.43a1.94,1.94,0,0,1,.76,1.14c-0.16,3.7,3.08,6.1,3.59,9.53-3,1-3.88,4.06-5.78,6-2.39,2.38-5.36,4.11-6.55,7.53-4.27.69-5.52,5.45-9.33,6.9a10.88,10.88,0,0,0-4.88,4.46c-3,4.44-7.35,7.46-11,11.23-2.46,2.57-5.73,4.53-7.21,8a2.25,2.25,0,0,1-2.45,1.58c-2.9-.28-3.7,1.59-3.85,3.91a13,13,0,0,1-1,4.8c-0.75,1.6-1.72,2.87-3.79,2.26a2.37,2.37,0,0,0-2.63.49c-2.35,2.79-5.31,4.93-7.9,7.45S48.24,283.62,45.45,281.05Z" transform="translate(-24.17 -134.11)"/><path class="cls-18" d="M515,355.21a18.85,18.85,0,0,1,12.1-1.5c1.83,0.39,4.22,0,5-.81,3.57-3.5,8.61-1,12.24-3.53a1.92,1.92,0,0,1,2,0c1.84,0.81,3.57.92,5.18-.6a3.6,3.6,0,0,1,3.37-.54c4.87,1.1,9.35,0,13.66-2.18q0,23.3,0,46.61c-6.21,2.58-12.27,5.7-19.29,5.35a2.14,2.14,0,0,0-1.37.25c-4,3.06-9.1,2.58-13.62,3.94a2.31,2.31,0,0,0-1,.35c-4,4-9.08,3-13.92,3.17-2.93-3.47-6-6.82-8.14-10.89-1.58-2.94-3.42-5.76-6.61-7.52-1.89-1-2.85-3.33-4.08-5.17-0.11-1.52.39-3.2,1.73-3.5,2.86-.63,2.92-2.67,3-4.75a5.16,5.16,0,0,1,1.59-3.66c2.2-2.38,3.29-5.58,5.51-8a2.15,2.15,0,0,0,.23-2.32C511.81,357.49,513,356.14,515,355.21Z" transform="translate(-24.17 -134.11)"/><path class="cls-19" d="M519.26,405.34c2.37-1.83,5.05-.15,7.56-0.65,1-.2,2.2-0.08,3-0.78,3.67-3.23,8.08-3.94,12.72-3.94a0.53,0.53,0,0,0,.33-0.09c4.88-4.43,11.77-1.79,17.25-4.94,2.22-1.28,5.39-2.67,8.53-2.31q0,17.31,0,34.61c-4.52,3.29-8.66,7.39-14.93,6.86a1.33,1.33,0,0,0-1,.25c-3.52,3.63-9,3.22-12.83,6.17a1.41,1.41,0,0,1-.92.46c-4.63-1.67-8,2.43-12.24,2.67-2.49.14-4.17,2.43-6.4,3.42-0.63.28-1.07,1.13-1.7,1.21a47,47,0,0,0-14.83,4.21c-1.33.66-3.38,0.39-5,1.09a6.32,6.32,0,0,1-5.45.12,13,13,0,0,0-1.93-8.43,2.39,2.39,0,0,1,.31-2.95c2-2,1-3.61-.32-5.47-2-2.87-3.75-5.92-3.27-9.68,0.32-2.37,1.71-3.51,4-4.28,5.24-1.77,9.53-5.28,13.95-8.47a60.8,60.8,0,0,1,7-4.65A20.69,20.69,0,0,0,519.26,405.34Z" transform="translate(-24.17 -134.11)"/><path class="cls-20" d="M488.9,427.24c-0.34,3.59,1.3,6.5,3.27,9.26,1.43,2,3.74,3.88.2,6.14a1.62,1.62,0,0,0,0,2.73c2.09,1.21.79,3.66,2.28,5.2,0.91,0.93-1.28,1.65-1.5,2.79-1,2.48-3.38,4-5.32,4.8-3.61,1.56-6.5,4.63-10.6,5.1a1.55,1.55,0,0,0-1,.37c-3.06,3.32-7,4.78-11.36,5.25l-101,0c0.62-2,2.13-2.27,3.91-2.08a7.25,7.25,0,0,0,6.67-2.4,2.64,2.64,0,0,1,1.75-1c7.73,0.74,13.87-4.13,20.86-5.74,4.28-1,8.47-2.75,13-2.85a6.36,6.36,0,0,0,4.07-1.82c1.79-1.52,4.32-2.44,5.83-3.66,4.06-3.26,10.8-1.56,13.19-7.51,0.52-1.3,1.87-1.25,2.76.11a1.78,1.78,0,0,0,2.47.6c1.15-.53.82-1.42,0.56-2.39-0.51-1.92.35-2.2,2.08-1.7,1.06,0.31,2.45.51,2.69-1.28,2.27-3.4,5-5.82,9.48-4.32a2.63,2.63,0,0,0,3.15-.76c1.06-1.33,2.54-1.47,4.07-1.51a23.75,23.75,0,0,1,13.25-1.23,3.25,3.25,0,0,0,2.57-.91,4.39,4.39,0,0,1,4.27-.79c1.42,0.47,2.74,0,4.1-.34S487.46,426.05,488.9,427.24Z" transform="translate(-24.17 -134.11)"/><path class="cls-21" d="M45.45,281.05c2.37,1.22,3.41.9,5.65-1.45,2.51-2.63,5.43-5.24,8.24-7.78a2.29,2.29,0,0,1,1.59-.5c3.45,0.35,5.14-1.37,4.87-5s1.13-5.23,4.83-5.15a1.31,1.31,0,0,0,1.46-.64,23.86,23.86,0,0,1,9.81-10.2A4.5,4.5,0,0,0,83.4,248c0.33-.9.57-2.17,1.43-2.29,4.16-.58,4.77-4.5,6.76-7,1.09-1.4,2.69-1.74,3.88-2.87,1.62-1.55,5-1.42,4.57-4.9a0.68,0.68,0,0,1,.48-0.45c4.33,0,5.39-3.14,6.47-6.4A1.8,1.8,0,0,1,108.2,223c4.15,1.15,4.07-2.72,4.64-4.58,0.8-2.59,1.63-3,3.78-1.82a2,2,0,0,0,.83-0.48c0.29-1.43,1.52-2,2.55-2.72s2.22-.53,3.38-0.32c-0.1-1.72,1.15-2.59,2.36-3.19a67.5,67.5,0,0,1,13.66-5.08,14.11,14.11,0,0,0,5.15-2c3.36-2.48,7.42-3.35,11.15-5,1.88-.81,3.66-0.32,5.48,0,3.64-.91,7.27-1.54,10.77.52-1.11,4.72-2.23,9.22-5.06,13.53-3.65,5.55-6.8,11.66-8.17,18.38a23.94,23.94,0,0,1-9.7,3.92,10.11,10.11,0,0,0-6.11,3,6.71,6.71,0,0,1-3.58,2.15,4.94,4.94,0,0,0-4.06,2.94,3.15,3.15,0,0,1-2.33,2,20.38,20.38,0,0,0-9.84,4.33c-5.45,1.82-10.92,3.56-16.45,5.13-2.88.82-5.29,3.26-8.24,4.38-1.92.73-3.66,2.22-6,1.36a1.56,1.56,0,0,0-1.8.8A11,11,0,0,1,81.44,265a1.63,1.63,0,0,0-1.26.49c-1.93,4.72-8.45,3.43-10.5,8-0.17.37-1.28,0.3-1.95,0.48-2.15.58-4.38,1-5.52,3.32-0.57,1.16-1.67,1.29-2.81,1.69-4,1.43-8.17,2.69-10.71,6.58-0.66,1-1.49,1.41-1.81-.23a2.63,2.63,0,0,0-1.47-2.22Z" transform="translate(-24.17 -134.11)"/><path class="cls-22" d="M109,198.44c-1,2.2-3.5.63-4.58,1.75-4.12,4.24-9.78,3.18-14.7,4.37s-9.06,4-14.19,4.13c-1.3,0-1.6,2.13-3.54,2.69-3.31,1-6.33,2.48-9.89,1.43a1.43,1.43,0,0,0-1.24.56c-2.41,4.26-7.75,3.21-10.93,6.09-2,1.8-3-.55-4.45-1.25q0-6,0-12c2.55-.32,5.15-1.92,8,0.93-0.56-2.49-2.4-4.42.08-6.17,1.72-1.21,3.35-2,5.52-1.35A2.73,2.73,0,0,0,62.32,198c3.17-6.72,10.15-8.69,15.58-12.54,3.25-2.3,6.12-5,9.43-7.27s4.61-6.36,8.48-8c1.11-.47,1.21-1.93,1.49-3.07s0.15-2.37,1.08-3.27l55.07,0c0.13,2.38-.79,4.11-3.17,4.76-1.77.48-2.27,2-2.79,3.36-0.67,1.82-1.52,2.9-3.78,2.89a7.37,7.37,0,0,0-5.89,2.7A31.27,31.27,0,0,1,127,185.72c-0.52.26-1.37,0.38-1.42,0.93-0.33,3.53-3.08,3.9-5.67,4.73A7.73,7.73,0,0,0,115.7,195C113.17,199.25,113.15,199.23,109,198.44Z" transform="translate(-24.17 -134.11)"/><path class="cls-23" d="M464.88,468.88c0.33-.65.86-1.39,1.54-1.27,4,0.66,6.09-2.23,8.64-4.3,0.79-.64,1.37-1.67,2.67-1.07s1.91-.05,2.68-0.94a5.09,5.09,0,0,1,2.23-1.58c4.09-1.18,6.93-4.36,10.5-6.36,2.49,0.14,4.89-1.08,7.11-1.18,4.05-.18,7-2.21,10.24-3.84,0.82-.41,2-0.07,3.07,0,4.51,0.29,7.43-2.81,10.74-5a6.34,6.34,0,0,1,.72-0.69c4.75,2.29,7.82-5.76,12.8-2.08a1.4,1.4,0,0,0,1.25-.38c1.43-1.76,3.52-2,5.45-2.78,2.46-1,5.59-.9,7.13-3.7a0.38,0.38,0,0,1,.31-0.15c6.7,0.92,11.12-4.24,16.71-6.28,0,12.23,0,24.46,0,36.68,0,3.91-1.13,5-5,5H464.88Z" transform="translate(-24.17 -134.11)"/><path class="cls-24" d="M492.44,273.29c4-3.37,5.53-3,9.87,2.51,1-.65.16-1.17-0.16-1.65a1.17,1.17,0,0,1,.25-1.82,1,1,0,0,1,1.53.27c1.12,2,2.49,1.18,3.86.44a4,4,0,0,1,3.41-.33c1.69,0.76,2.92,1.1,4-.89,0.5-1,1.38-.68,2,0.15a2.81,2.81,0,0,0,1.62,1.23c5.07,1.36,10.13.76,15.22,0.12,2.88-.36,5.36,1.7,8.47,1.09,6-1.17,12,1.46,18.08.55a7,7,0,0,0,2.79-1.18c1.7-1,3.3-2.23,5.3-2.63q0,26.84,0,53.67c-2.59-.49-4.8-1.61-5.91-4.13-1.65-3.72-5.23-5.39-8.09-7.82-3.67-3.12-7-7-11.24-9-3.58-1.67-5.63-5.52-9.77-6a2.58,2.58,0,0,1-1.71-1.1c-3.31-5.94-10.18-6.1-15-9.47-3.67-2.56-8-4.06-11.19-7.33-1.79-1.86-4.45-.64-6.39-2.41A18.94,18.94,0,0,0,492.44,273.29Z" transform="translate(-24.17 -134.11)"/><path class="cls-25" d="M109,198.44c0.06-.73.19-1.53,1-1.72,1.72-.41.64,1.81,1.83,2,2.91-1.39,2.67-5.3,5.48-6.91,1.32-.76,2.44-1.73,4.06-1.89,1.81-.17,3.75-0.4,2.77-3.14a1.82,1.82,0,0,1,.17-0.95c2.87,0.4,3.37-4.2,6.59-3.1a2,2,0,0,0,2.32-1.23c2-3.47,4.64-6.65,8.57-7.06,4.16-.43,5.28-2.88,6.32-6a1.22,1.22,0,0,1,.69-0.71c3.54,1.07,3.23-2.46,4.68-3.88h33.2c0.91,1.88-.64,2.37-1.74,3.16-5.26,3.76-10,7.85-11.39,14.69-0.46,2.32-2.75,3.56-4.5,4.72A15,15,0,0,0,162,197.56a3.34,3.34,0,0,1-.72,1.58c-2.16-1.32-4.26-1.05-6.53-.08-4,1.72-8.26,2.9-11.67,5.83-1.61,1.38-3.83.85-5.67,1.21-3.25.64-5.54,3.82-9.19,3.09-1.17-.23-1.49,2-2.36,1.76-2.48-.66-0.38,3.66-3.27,2.65-2.11-.74-3.33,1.74-5.09,2.48-1.06-2.83-5-4.38-3.67-8.3a1.62,1.62,0,0,0-.59-1.19c-2.1-2-4.36-3.86-3.21-7.31A3.51,3.51,0,0,0,109,198.44Z" transform="translate(-24.17 -134.11)"/><path class="cls-26" d="M299.65,163.85h79.1c1.24,2.07-.25,3.66-1.7,3.59-5.37-.27-7.31,4.18-10.5,6.92-0.18.15-.35,0.3-0.54,0.43a14.71,14.71,0,0,1-7.26.68,9.18,9.18,0,0,0-6.92,1.51,24,24,0,0,1-9.29,3.07c-4.84.76-9.63,1.87-14.54,2.13a11.29,11.29,0,0,0-4.27,1.48c-4.13,2-8.39,3.47-13.07,3.23a4.83,4.83,0,0,0-2.68.68c-5.14,2.89-11,3.9-16.39,6-4.36-.35-8.79.52-13.08-0.89a7.7,7.7,0,0,0-3.79.06,9.15,9.15,0,0,1-6.42-.81c-0.69-3.17,1.81-4.85,3.61-6.37,4-3.35,8.71-5.61,13.21-8.21,2.61-1.51,4.25-4.13,6.31-6.26,0.63-.66,1-1.89,1.9-1.93C296.87,169,298.11,166.29,299.65,163.85Z" transform="translate(-24.17 -134.11)"/><path class="cls-27" d="M366,174.43c3-2.78,3.78-8.45,9.88-7.37,1.68,0.3,3-1.12,2.85-3.19h99.56a2.59,2.59,0,0,1-.45,1.28c-3.69,1.54-6.88,3.57-8.36,7.57-0.26.7-1.18,1.16-1.64,0.31-1.17-2.13-3.24-.5-4.74-1.31a1.2,1.2,0,0,0-1.72,1.18c-0.23,4-1.51,7.08-6.06,7.63a2.32,2.32,0,0,0-.35.95c-0.86,1.7-1.4,3.1-3.79,1.14a8.74,8.74,0,0,0-8.34-1.51c-1.81.58-3.63,1.12-5.43,0a1.4,1.4,0,0,0-1.33-.31c-4.28,2.74-8.47,0-12.69-.19-1.17-.06-2.38-0.48-3.5-0.24-6.38,1.34-12.87,0-19.32,1-3.32.54-7.22,1.3-10.59-.86a1.67,1.67,0,0,0-1.69-.21c-3.42,2.13-7.16.41-10.7,0.94-1.95.29-3.9,0.08-5.86,0.91s-3.9,0-5.45-1.52C365.66,178.57,364.61,176.55,366,174.43Z" transform="translate(-24.17 -134.11)"/><path class="cls-28" d="M299.65,163.85c-0.53,3-1,5.95-5.15,5.7a1.82,1.82,0,0,0-1.24.47c0.07,3.45-4.47,3.09-5,6a1.54,1.54,0,0,1-.72,1.1c-4.14.56-6.27,4.58-10.22,5.73a10.58,10.58,0,0,0-6.63,5.47c-0.66,1.42-2,1.94-2.85,3-0.88,2.55-2.79,1.83-4.59,1.46-5.19,3.14-11.2,3.79-16.9,5.06-5.33,1.19-10.92,2.66-16.54.9-1.32-4-.51-8,0.44-11.85,0.47-1.92,1.25-3.7.92-5.73a6.79,6.79,0,0,1,.29-3.46c1.15-3.08,2.37-6.12,1.9-9.52,1.77-2.31,4.64-2.89,6.93-4.39h59.33Z" transform="translate(-24.17 -134.11)"/><path class="cls-29" d="M98.38,163.88c-0.06,3.5.34,7.22-4.42,8.26a2.65,2.65,0,0,0-1.43,1.43c-1.93,4.18-5.77,6.29-9.3,8.73a9.29,9.29,0,0,1-1.28.36c0.28,4.36-4.08,3.48-6.1,5-2.39,1.78-4.79,3.93-8,4.84-1.87.53-2.8,3.25-4,5.09-1.37,2-2.58,4.58-6.07,2.61-1.76-1-3.13,1.12-4.42,2.16s0.22,1.67.77,2.43c0.74,1,1,2.37,0,3.19s-1.94.33-2.34-1-1.32-1.15-2.23-.61a3.59,3.59,0,0,1-4-.1c0-13,0-26-.1-39.07,0-2.65.76-3.39,3.38-3.37C65.29,163.9,81.84,163.86,98.38,163.88Z" transform="translate(-24.17 -134.11)"/><path class="cls-30" d="M240.32,163.85c-1.38,2.52-4.2,2.87-6.35,4.23a9.73,9.73,0,0,1-5,3c-3.18.86-5.14,4-8.54,4.66-1.24.23-2.4,0.89-3.73,0.82-0.71,0-1.67-.15-2,0.41-2.8,4.73-9.28,3.81-12.35,8.16a4.63,4.63,0,0,1-3.77,1.68c-6.92-.06-11.46,4.83-16.84,8a3.39,3.39,0,0,0-1.31,1.63c-0.77,1.74-1.87,2.74-3.83,1.72-1.67-.87-3.13.95-4.75,0.27-3.57-.34-7.19-1.4-10.59.7,0-5.19,1.28-9.66,6.26-12.42,1.82-1,2.86-3.11,4.79-4.11a1.41,1.41,0,0,0,.65-0.76c-2.29-4.08,3.22-5.23,3.18-8.49a1.84,1.84,0,0,1,1.9-1.74,0.68,0.68,0,0,0,.34,0c1.85-3.56,6.14-4.51,8.3-7.72h53.67Z" transform="translate(-24.17 -134.11)"/><path class="cls-31" d="M215,360.32c0.07-2.6-.23-3.94-3.79-4.12-10.8-.55-21.29.91-31.85,2.83-4.48.82-8.47,3.41-13.15,3.22l-2.5-3.55a1.86,1.86,0,0,1,2.05-.66c2.44,0.13,3.06-.88,1.79-2.91-1.57-2.51-1.21-4.83.41-7.12s-0.17-4.78-.26-7.15c-0.1-2.74.16-4.95,2.54-6.34s1.7-2.64.18-4.05c1.63-3.15,4.2-5.73,5.4-9.16,0.46-1.31,1.85-1.63,3.19-1.84a5.73,5.73,0,0,0,4.82-4.5c0.83-2.87,2.46-5.07,5.38-6,2.67-.83,3.5-3.76,5.89-4.85,5.26-1.09,10.55-2.19,15.69-3.71,8.06-2.38,16.57-1.76,24.63-4.35,3-1,6.79-2.39,10.07.21,1,2.09-.16,3.86-0.88,5.68-2.6,6.55-7.13,11.76-11.67,17-9.44,10.88-14.21,23.8-16.39,37.84C216.34,358.11,216.87,359.77,215,360.32Z" transform="translate(-24.17 -134.11)"/><path class="cls-32" d="M195.14,305.07c-2.36,1.92-3.88,4.72-7.34,5.56-1.18.29-3.07,2.26-3.2,4.91a5.44,5.44,0,0,1-5,4.85c-2.11.16-2.76,0.75-3.64,2.68-1.25,2.75-2.31,6-5.5,7.42-3.23-1.63-5-4.76-7.18-7.37-1.63-1.91-3.35-3.82-5.7-4.47-2.59-.71-4-2.48-5.71-4.21-3.35-3.41-6.85-6.69-10.36-9.94-0.48-.44-1.39-0.51-1.36-1.37,0.14-3.28-2.12-3.06-4.29-3a2.12,2.12,0,0,1,1.42-2.13c1.4-2.87,3.84-4.08,6.71-5.42a37.06,37.06,0,0,0,7.79-5.24c3-2.54,6.29-4.81,9.34-7.29,2.62-2.12,5.22-5.43,9.37-5.53,1.3,0,2.27-1.14,3.3-1.92a49.14,49.14,0,0,1,14.53-8c3-.35,5.07,2.07,7.72,2.86,3.44,1,7,1.86,10.18,3.53,1,0.53,2.19.83,2.82,1.93a8.09,8.09,0,0,1-2.1,8.65,19.34,19.34,0,0,0-5.55,11.81,3.41,3.41,0,0,1-.9,2.57A15.32,15.32,0,0,0,195.14,305.07Z" transform="translate(-24.17 -134.11)"/><path class="cls-1" d="M215,360.32c1.05-5.28,1.74-10.62,3.29-15.81a70.84,70.84,0,0,1,16-28.59c5.17-5.55,9.41-11.69,11-19.31-0.1-5.15,1.58-9.89,3.77-14.38,3-6.11,6.88-11.63,12.52-15.69A116.74,116.74,0,0,1,280,252c3.43-2.1,5-5.41,6.53-8.86,2.4-4.57,4.28-9.42,8.13-13.13,5.79-5.59,11.87-4.29,14.84,3.23,1,2.45,1,5,1,8.11,2.16-2.72,3.76-5.14,5.47-7.48,1.47-2,3.1-3.89,5.53-4.78,5.68-2.08,10,.22,11.63,6.08,1,3.7.69,7.48,0.57,11.23,0,1.59,0,3.07,1.36,4.14,2.75,2.23,5.92,3.85,8.67,6.05a2.31,2.31,0,0,0,3.18,0,34.9,34.9,0,0,0,3.7-3.26c14.85-14.41,28.72-29.78,43.48-44.28,2.26-2.21,4.38-4.58,6.77-6.65,1.75-1.51,3.78-2.74,6-1.1s1.87,4.11.72,6.33c-1.67,3.22-3.66,6.27-5.53,9.38-7.45,11.94-14.69,24-22,36.08-4.71,7.3-9,14.87-13.61,22.21-2.74,4.33-2.66,4.6.38,8.7,1.61,2.17,3.27,4.3,4.86,6.48,8.92,13.22,19.72,24.79,31.22,35.75a50.06,50.06,0,0,1,11.74,17,58.28,58.28,0,0,1,3.07,9.73c1.62,8.61,1,16.79-4.59,24-8.38,8.06-18.39,8.45-28.94,6a72.34,72.34,0,0,1-12-4.19c-6.44-2.73-13.09-3.23-20-2.45-12.29,1.38-24.59,2.3-36.41-2.93-2.82-1.25-3.8-.54-4.49,2.47a85,85,0,0,0-1.49,9c-1.17,8.86-2.32,17.71-3.64,26.54-0.58,3.9-2.77,5.74-7,6.08-5.1.41-10.08-.59-15-1.68-7.82-1.74-15.31-4.58-22.82-7.32a8.23,8.23,0,0,1-2.63-1.73,171.63,171.63,0,0,1-21-10.58c-2.24-1.31-3.79-1-5.46.95a36.36,36.36,0,0,1-5.92,6c-3.84,2.86-7.5,1.39-7.52-3.3C218.7,386.56,214.73,373.65,215,360.32Z" transform="translate(-24.17 -134.11)"/><path class="cls-33" d="M258.68,406.82c8.44,2.39,16.52,5.91,25.09,7.93a54.58,54.58,0,0,0,15.67,1.77c4.16-.24,5.25-1.38,5.82-5.53,1.2-8.71,2.45-17.41,3.68-26.12,1.79-1.38,3.3-.68,4.68.66,0.76,0.73,1.35,1.83,2.47,1.87,4.42,0.16,7.29,2.9,10,5.85,1.53,1.64,3.71,1.37,5.58,1.9,3.81,1.09,6.83,3.56,10,5.61s6.49,2.57,9.78,3.71a106.7,106.7,0,0,1,13.58,5.46,14.43,14.43,0,0,0,6,1.73c2.9,0,4.33,1.26,5.62,3.34,0.36,1.31-.59,1.9-1.44,2.5s-1.7,1.28-1.63,2.49c0.09,1.46-.26,2.45-2,2.64-0.94.1-1.17,1.08-1.22,1.9a6.64,6.64,0,0,1-1.59,3.42c-3.19,0-6.15,2.39-9.52.82-0.61-.28-1.29.45-1.65,1.08-1.33,2.31-3.48,2.21-5.12,1-2.27-1.67-3.69.35-5.5,0.57S343,431,342.55,434c-0.19,1.37-1.41.68-1.68-.07-0.91-2.47-2.31-1.54-4.27-1.44-3.65.18-7.39-.12-11.08-0.3-4-.2-7.84,1.18-11.85,1.2-2.29,0-4.66,2.38-6.62-.88-0.42-.69-1.74-0.54-2.46.37-1.39,0-2.74-.42-4.18-0.06-1,.26-2.42.08-2.63-1.16-0.44-2.67-1.81-2.32-3.78-1.78-2.32.63-4.64,0.37-6.26-1.85a2.63,2.63,0,0,0-.59-0.38c-1.24-.92,2.2-4.22-1.27-3.41-1.9.44-3-.25-4.43-0.52-2-.37-3-1.71-4.12-3.34-1.89-2.71-4.2-5.32-8.27-4.54a5.84,5.84,0,0,1-5.51-2.48C262.14,411,259.59,409.49,258.68,406.82Z" transform="translate(-24.17 -134.11)"/><path class="cls-34" d="M188.07,265.53c-4.76,2.16-9.49,4.37-13.62,7.64-1.65,1.31-3.1,2.88-5.53,2.35a1.84,1.84,0,0,0-2,1.17c-1,1.65-2.15,3.09-4.38,3a1.6,1.6,0,0,0-1.18.6c-3.46,5.11-9.51,6.93-13.74,10.85-3.21,3-8.3,2.61-10.41,6.85,0-2.9,1.55-6.48-.85-8.45-2-1.61-1.93-3.08-2-5a53.39,53.39,0,0,1,7.22-12.51c1.92-2.67,2.78-6.13,5.17-8.67a29.85,29.85,0,0,1,4.08-3.81c2.54-1.87,3.2-5.3,5.48-7.56,1.06-1,1.81-2.4,3.22-3.14a4.12,4.12,0,0,0,2.4-2.48c0.71-3.52,3.16-5,6.28-5.9a2.37,2.37,0,0,0,1.86-1.5c0.55-3.5,3-5.62,5.34-7.87a16.26,16.26,0,0,1,13.75-5.07c2.56,0.38,3.83,2.63,5.45,4.16,4.47,4.19,9.2,8.26,11.7,14.12a3,3,0,0,1-2.18,3.56,7.11,7.11,0,0,0-3.85,3c-2.19,4-5.38,7-8.66,10C190.18,262.23,190.24,264.74,188.07,265.53Z" transform="translate(-24.17 -134.11)"/><path class="cls-35" d="M176.06,231.64a19,19,0,0,0-5.71,8.77c-0.31.89-1.51,0.9-2.41,1.19-2.28.76-4.89,1.27-4.74,4.68a2.6,2.6,0,0,1-1.33,1.93c-3.18,1.44-4.47,4.74-7,6.85a5.15,5.15,0,0,0-1.24,2.43,5.22,5.22,0,0,1-3,3.38A14.44,14.44,0,0,0,144,269c-1.11,3.85-4,6.06-5.78,9.2-0.6,1.07-1.83,1.63-1.21,3.3,0.83,2.23-1.77,2-2.6,3-9.72.94-19.33,2.67-29,4.24-1.31-2.16-.86-3.71,1.8-3.64,2.38,0.06,2.79-1.54,3-3.07a9.59,9.59,0,0,1,1.71-4.49c1.39-1.87,2.94-3.74.8-6.2a1.39,1.39,0,0,1,.7-2.29c2.18-.67,2.74-2.9,3-4.37a9.5,9.5,0,0,1,2.86-5.42c2.72-2.7,2.27-6.81,4.77-9.54,0.35-.38-0.41-1-1-1.22,1.85-3.46,5.12-4.41,8.64-5,0.67-.11,1.79-0.2,1.91-0.56,1.8-5.46,8.66-4.41,11.23-8.84,1.41-2.44,4,.14,6.06-1.41s4.94-1.79,7.46-2.6a1.42,1.42,0,0,1,.57-0.4C164.77,229.48,170.58,229,176.06,231.64Z" transform="translate(-24.17 -134.11)"/><path class="cls-36" d="M371.09,290.94c-2.26-3-4.51-6-6.78-8.93a3.34,3.34,0,0,1-.31-4.19q7.74-12.51,15.43-25c0.81,0.16,1.72.22,1.43,1.46,2.51,1.49,4.65,4,8.19,1.84,0.92-.56,3,0.25,4.27.94,2.85,1.56,6,2.57,8.45,4.93,1.4,1.36,3.33.92,5,.44a3.44,3.44,0,0,1,3.59.51c2,1.68,4.75,1.55,6.79,2.35,3.31,1.31,7.64,1,10.05,4.5a6.28,6.28,0,0,0,6.07,2.85,9.29,9.29,0,0,1,8.64,3.65c2.21,3,5.7,3.59,8.58,5.12A64.26,64.26,0,0,1,461.08,288c3.38,2.78,7.25,5.07,10.23,8.44a9.78,9.78,0,0,0,6.68,3.63,3.26,3.26,0,0,1,3.2,2.72c0.94,3.26,3.17,5.21,5.77,7.42,3.16,2.69,7.57,4.63,8.64,9.68,0.31,1.47,2.32,4,3.78,4.42,3.89,1.16,3.21,4.42,2.91,6.42-0.53,3.51,1.48,5.14,3.62,6.45,1.39,0.85.65,1.63,0.95,2.26,1.21,2.54.37,6.18,4.12,7.51,3,1.06,4.3,4.82,3.32,8.2-3.09.71-5.55-1.27-7.79-2.57-4.94-2.86-10.35-4.38-15.49-6.61a4,4,0,0,1-1.71-1.19c-1.84-4.61-6-6.93-9.79-9.48-1.37-.92-2.74-1.6-3.72-3-1.54-2.28-2.91-4.92-6.55-4.18-1.12.23-2-.84-2.19-1.94-0.88-4.65-5.29-5.16-8.39-7.07s-6.84-2.72-9.74-5.06a19.3,19.3,0,0,0-3.77-1.87c-2.91-1.47-6.21-2.23-8.48-4.86a3.31,3.31,0,0,0-2.47-1.25c-4,.4-7.72-1.39-11-2.8-5.85-2.49-12.3-2.38-18-5.41-7.63-4.08-16.23-4.32-24.67-4.87C377.27,292.78,374.36,291,371.09,290.94Z" transform="translate(-24.17 -134.11)"/><path class="cls-37" d="M489.6,344.61c8.66,2.55,16.53,6.93,24.72,10.59H515c-1.09,1.63-3.23,3-1,5.33a1.3,1.3,0,0,1-.34,1.88c-3.44,2.27-3.68,6.9-7.08,9.36-1,.71-0.66,3.37-0.74,5.15-0.07,1.54-.4,2.48-2.22,2.19-2.29-.37-1.79,2-2.75,2.93a3.8,3.8,0,0,1-3.48,1.34,8.48,8.48,0,0,0-5.64,1.52c-4.64,2.82-9.78,3.59-15.1,3.81-2.07.08-4.26-.11-6.2,1a1.74,1.74,0,0,1-1.36.27c-5.56-1.88-10.53.64-15.81,1.54-3,.51-6.89,2.59-10.27-0.09-0.73-.58-1.87-0.28-2.72.15-2.14,1.07-4.33.81-6.56,0.45-5.86-2.23-10.64-6.26-15.84-9.58a52.14,52.14,0,0,1-4.2-3.16c-0.87-.69-2.07-1.38-1.1-2.84,4.54-6.46,5.58-13.64,4.39-21.28-0.14-.91-0.14-1.85-0.2-2.78,7.6-3,15.27-1.93,23.47-.91a9.25,9.25,0,0,1,1-1.83c1-1,1.6-1,2.41.3,2.21,3.46,3.22,3.7,6.73,1.68a3,3,0,0,1,2.6-.6,5.3,5.3,0,0,0,4.37-.76,5.31,5.31,0,0,1,3.39-.76c3.82,0.67,7.35-.72,11-1.44,1.26-.25,2.49-0.79,3.8-0.5a2.43,2.43,0,0,0,2.82-.83,1.61,1.61,0,0,1,1.08-.85C483,346.46,486.13,344.18,489.6,344.61Z" transform="translate(-24.17 -134.11)"/><path class="cls-38" d="M380.86,254.23l-1.43-1.46q10.55-18.23,21.88-36c4.18,2.63,8.93,1.33,13.39,2,3.33,0.52,7.08-.44,9.95,2.23a5.76,5.76,0,0,0,1.66,4.82,32.83,32.83,0,0,1,4,5.71c1.2,1.85,1.76,4.41,4.69,4.7,0.59,0.06,1.27,1,1.59,1.75,2.18,4.76,6,7.94,10.19,10.74a9.34,9.34,0,0,1,1.87,2c0.36,0.45.64,1.44,0.91,1.43,4.83-.26,5.75,5,9.36,6.54s6.57,4.48,10.49,5.57a2,2,0,0,1,1.8,1.89c-3.24-1.29-6.65-2-9.8-3.7-3.8-2.07-8.26-1.17-12.41-1.57-1.54-.15-2.7.09-4-1.17a6.39,6.39,0,0,0-3.56-1.3c-7.52-1-15.14-1.45-22.55-2.72-6.13-1-12.12-.28-18.15-0.79-2.34-.2-4.23-1.62-6.73-1.58C389.65,253.48,385.32,254.94,380.86,254.23Z" transform="translate(-24.17 -134.11)"/><path class="cls-39" d="M424.64,221c-3.81-.47-7.58-1-11.47-1.09-2.76-.07-5.65-0.06-8.46-0.34-1.83-.18-2.25-1.91-3.4-2.83,1.75-3,3.54-6,5.24-9,1.09-2,2.31-4.13-.07-5.93s-3.84.07-5.36,1.56c-2.24,2.2-4.49,4.39-6.73,6.59-4.65,1.52-8.94-.78-13.37-1.38-1.6-.22-2.79-1.65-3.81-3,0.87-2.63,3.22-2,5-1.93,2.13,0.06,3.95-.07,5.36-1.85a2.71,2.71,0,0,1,2.52-1c5.35,0.63,10.09-1.41,14.82-3.43a6.29,6.29,0,0,1,4.42-.47c2.89,0.82,5.07-1.39,7.62-2,3.3-.86,6.46-2,10-2.14s6.94-1.4,10.38-2c3.16-.55,6.63-1.49,9.87-0.37,1.77,0.61,2.78.54,3.81-1.07,1.68-2.63,4.18-2.71,6.86-1.81a3.75,3.75,0,0,0,.94.46c5.57-.27,11.05,1.83,16.65.61h2.12c-1.85,2.17-3.94,3.95-3.42,7.52,0.28,1.92-2.48,3.44-3.26,5.62s-0.25,5.82-4.45,5.36a0.69,0.69,0,0,0-.51,1.06c1.6,2.07-1,4.3.3,6.36a0.71,0.71,0,0,1,0,.68c-5.07,4.29.68,4.17,2.31,5.73a5.27,5.27,0,0,1,.6.86c-3.36,0-6.66-1.29-9.85-1.38-3.92-.11-8.35-1.57-12,1.59-1.57,1.36-2.66,1.24-3.61-1-1-2.36-3.06-2.41-3.93-.17a1.42,1.42,0,0,1-2.17.86C433.34,219.08,428.94,221.31,424.64,221Z" transform="translate(-24.17 -134.11)"/><path class="cls-40" d="M368.85,427.94c0.24-1.37.55-2.73,0.69-4.12,0.11-1.17.74-2.59,1.58-2.42,1.87,0.39,2.36.32,1.5-1.61-0.54-1.22.25-1.94,1.28-2.5s2.24-.83,2.72-2.07c0.39-1.67,1.85-1.93,3.15-2.43a66.4,66.4,0,0,0,7.81-3.06c2.93-1.56,5.79.77,8.7,0.94-0.53-2.24,1.25-3.65,3.89-3.71,4.58-.1,9-0.08,13-3.65,2.43-2.15,5.42-4.88,10-3.94,2.25,0.47,5.13-1.1,7.79-1.41,4.08,2.24,8.32,4.18,11.31,8.07,3.21,4.17,7.84,7,11.19,11.07,1.65,2,3.53,3.78,3.87,6.53,0.21,1.63,1.31,2.7,2.31,3.86s2.29,2.24,1,4c-1.56.06-3.25-.42-3.92,1.86-0.34,1.14-1.74,1.23-2.72.74-3.47-1.76-6.17-.87-8.49,2.06a5.52,5.52,0,0,1-1.82,1c-2.66-1.22-5.71-1.22-8.27-2.73a2.4,2.4,0,0,0-2.65.06c-1.89,1.13-3.93.92-6,1.1-3,.26-5.66.81-7.94-1.81-0.36-.41-1.68-0.32-2.38,0-4,1.66-8.09-.13-12.07.15-7,.49-13.11-3.15-19.75-3.42a23.74,23.74,0,0,1-9.31-2.53A7.1,7.1,0,0,0,368.85,427.94Z" transform="translate(-24.17 -134.11)"/><path class="cls-41" d="M475.48,188.56c-1.72,4.16-4.67,1-6.89.85a31.17,31.17,0,0,0-3.9-.32c-2.36.15-4.67,1.42-7.24-.75-1.68-1.41-4.77-1.21-6,2-0.77,2-2,2.83-3.95,1a3.39,3.39,0,0,0-4-.41c-1.6.91-2.9,1.4-4.4,0a1.23,1.23,0,0,0-1-.1c-1.8,4.39-6.18-.06-8.71,2.55a3.07,3.07,0,0,1-4.46-.16c-1.92,1.76-4.78.83-6.54,1.87-2,1.16-4.3,1.16-6,2.65a2.39,2.39,0,0,1-1.95.57c-4.67-1.92-7.93,1.27-11.76,2.81-2.39,1-5.35.52-8.06,0.66-0.44,0-1.25-.4-1.3-0.31-2.74,5.23-8.35,1.7-12,4a4.33,4.33,0,0,1-3,1.62c-6.21.92-12.32,2.68-18.67,2.5a13,13,0,0,0-4.84.43,5.92,5.92,0,0,1-5.37-.58,4.78,4.78,0,0,1-1.94-.87c0.15-2.23,1.23-4.3,1.1-6.61a1.74,1.74,0,0,1,1.33-1.52c2.74-.53,4.09-2.66,5.24-4.74,1.38-2.51,4-3.44,5.92-5.33,2.91-2.92,5-6.62,8.42-9a2.89,2.89,0,0,1,1.24-.6c4.68,1.4,9.16-1.15,13.85-.63,2.57,0.28,5.53,1.34,7.76-1.27a1.05,1.05,0,0,1,1-.07c2.36,3.41,6,.83,8.85,1.84a4.83,4.83,0,0,0,4.07-.45,6.1,6.1,0,0,1,6.62,0,3.26,3.26,0,0,0,3,.43c4.64-2.1,9.26-1.45,14-.31,2.47,0.6,5.35-.83,7.54,1.45a0.77,0.77,0,0,0,.58-0.27c1.09-3.81,2.77-2.07,4.68-.66,1,0.71,2.33.07,3.34-.35,4-1.64,7.24-.73,10.28,2.18,1.24,1.19,1.62-1.16,2.71-1.19s2.16,0.08,2.7,1.2c0.78,1.62,1.88,1.69,3.46,1.13,2.94-1,4.43,1.94,6.67,2.86A19.72,19.72,0,0,0,475.48,188.56Z" transform="translate(-24.17 -134.11)"/><path class="cls-42" d="M460.65,431.47c-2.37-4.37-4.29-9.06-7.22-13C449.69,413.4,444,410,440.18,405c-2.41-3.18-6.78-3.56-9.2-6.68a16.73,16.73,0,0,1,2.84-7.07c2.41,0.24,4.82.53,7.08-.77a2,2,0,0,1,2.32-.14c2.2,1.71,4.32,2.26,6.4-.18a1.11,1.11,0,0,1,1-.17c1.84,2.79,3.74.53,5.13-.26,2.76-1.58,6.4.53,8.7-2.36a0.68,0.68,0,0,1,.65-0.12c4.53,4.11,9.52.21,14.24,0.41,3.07,0.13,7.22,0,10.32-2.67S497,382.36,500.9,382c4.22,4.42,9.73,7.78,12,13.82,1.39,3.72,5.66,5.39,6.37,9.48-0.13,1.7-1.14,2.64-2.57,3.45-4,2.26-7.67,5.09-11.46,7.54-4.34,2.8-8.27,7-13.83,7.69-2.11.27-2.1,1.82-2.5,3.22-3.37,0-6.5,2.86-10.07.84a1.34,1.34,0,0,0-1.24.38c-2,3.16-5.6,2.17-7.68,1.59-3.08-.85-5.13.17-7.54,1.21A6.12,6.12,0,0,1,460.65,431.47Z" transform="translate(-24.17 -134.11)"/><path class="cls-43" d="M176.06,231.64l-17.66-1.42c-0.52-4.92,2.53-8.72,4.23-12.9,2.16-5.3,7.17-9.24,7.51-15.47,0.07-1.33,1-2.32,1.68-3.4,1.88-.72,3.54-3.13,5.84-0.68,0.44,0.47,1,.15,1.41-0.43,4.69-6.25,10.84-10.31,18.62-11.25a7.69,7.69,0,0,0,5.42-2.66,7.62,7.62,0,0,1,5-3,6.86,6.86,0,0,0,5.28-3.59c0.45-.84.87-1.61,2.12-1.4,4.12,0.67,7.38-1.14,10.34-3.76,2.33-2.06,5.71-1.76,8.16-3.58a0.81,0.81,0,0,0,0,.35c1.54,3.25.05,6-1.36,8.82a7.79,7.79,0,0,0-.32,5.1c0.29,1.43.66,3.26-1.05,4.46a2.34,2.34,0,0,0-.77,2.24c0.28,3.18-.39,6.27-0.72,9.4,1,2.13-.78,2.72-2.08,3.28-7.36,3.21-13.82,7.94-20.57,12.16a6.28,6.28,0,0,0-1.94,2,19.14,19.14,0,0,1-10.24,7.64,13.67,13.67,0,0,0-5.41,3.15c-1.55.26-3.06,1.18-4.7,0.2a1.63,1.63,0,0,0-1.31-.1C181.83,229.69,177.58,228.59,176.06,231.64Z" transform="translate(-24.17 -134.11)"/><path class="cls-44" d="M366.73,180.79c-1.3,1.73-2,4-4.57,4.53-1,.24-1.07,1.41-1.09,2.37s-0.37,2.06-1.44,2.1c-2.85.1-2.69,1.87-2.14,3.91-2.41-.79-5.95,1.41-6.89,4.48a2.88,2.88,0,0,1-2.83,2.44c-2.09.27-3.61,1.17-2.3,3.77,1.08,2.14-1.83,2.37-2.05,3.93-1.21,1.75-3,1.9-4.94,2a83.32,83.32,0,0,0-20.18,3.76c-4.91,1.59-9.83,3.92-15.3,3a3.11,3.11,0,0,0-2.57.87c-2.49,2-5.48,2.46-8.55,2.58-1.63-1.25-2.62-2.93-1.69-4.86,1.76-3.66.55-7.35,0.21-10.94-0.29-3,.07-6.05-0.23-9.07-0.13-1.31.84-2.11,1.71-2.9,5.27-2.93,11.71-3,16.64-6.79a2,2,0,0,1,1.35-.24c5.42,0.66,10.21-1.13,14.81-3.71,1.62-.91,3.5-0.27,5.06-0.72,6-1.73,12.41-1.3,18.28-3.59a3.45,3.45,0,0,0,1-.38c5.11-4.29,11.25-2.55,17-2.93Z" transform="translate(-24.17 -134.11)"/><path class="cls-45" d="M291.88,192.79c-1.65,3-1.1,6.51-.74,9.45s-0.38,6.23,1.15,9.08a2.08,2.08,0,0,1-.27,2.31c-1.66,2.22-1.45,4.43-.13,6.69-3.33-.24-4.51,3.2-7.13,4.17-3.44,1.34-7.42,1.43-10.13,4.44a0.77,0.77,0,0,1-.63.27c-4.74-1.64-8.37,2-12.63,2.61-2.19.29-3.85,1.66-5.82,2.37a19.53,19.53,0,0,1-6.1,1.5c-3.14-.74-6.16-2-9.56-1.53-1.67.23-3-1-4.08-2.32-0.8-3.14,1.53-5,3.07-7.07a18.83,18.83,0,0,1,3.13-2.83c1.73-1.5,2.66-3.22,2.07-5.59s0.21-4.17,2.9-4.62a5.55,5.55,0,0,0,4.45-3.57c1.22-2.85,4.32-4,5.84-6.8s3.92-5.55,5.32-8.68a0.77,0.77,0,0,1,1-.58,3.58,3.58,0,0,0,4.25-.71Z" transform="translate(-24.17 -134.11)"/><path class="cls-46" d="M263.62,192.09c-0.75,3.46-3.43,5.86-4.9,8.89-1.78,3.65-5.74,5.39-7.33,9.2a4.19,4.19,0,0,1-4.34,2.43c-2-.14-3,1.19-2.27,2.93,1.59,3.85-.65,6-3.21,8s-4.77,4.63-5.48,8.09c-0.76,2.61-2.92,3.53-5.22,4.17-2.93.81-5.91,1.46-8.83,2.32a9.45,9.45,0,0,0-4.29,2.25,6.23,6.23,0,0,1-5,2.06c-2.59-.22-4.41,2.19-7,1.91-4.25-7-10.17-12.37-16.24-17.65,0.07-2,1.35-2.8,3.07-3.29a22,22,0,0,0,12.54-8.82c1.73-2.47,5-3.91,7.8-5.55,5-3,9.75-6.47,15.32-8.44a2.17,2.17,0,0,0,1.52-2.15,31.35,31.35,0,0,0,14.53-1.06c5.71-1.86,12.53-.61,17.25-5.52A1.28,1.28,0,0,1,263.62,192.09Z" transform="translate(-24.17 -134.11)"/><path class="cls-47" d="M262.09,266.9c-7.21,6.53-12.81,14.08-15.15,23.72-0.49,2-.55,4.14-1.62,6-3.34-1.72-7.16-.66-9.86.39-4.77,1.85-10.1.75-14.51,3.51a1.06,1.06,0,0,1-.68.08c-8.9-1.45-16.61,3.79-25.13,4.47-0.17-2.94-.44-6,2.77-7.63,2.93-1.51,2.92-4.7,3.13-7,0.34-3.77,2.46-6.4,4.59-8.65a10,10,0,0,0,2.92-8.52,1.81,1.81,0,0,1,1.5-1.31c3.52-.11,5.86-2.64,8.56-4.29,2-1.21,3.65-2.83,6.07-3.18,1.14-.16,1.71-1.1,2.25-2a4.24,4.24,0,0,1,4-2.4,194.42,194.42,0,0,0,25.51,3.75C258.74,264,261.13,264.14,262.09,266.9Z" transform="translate(-24.17 -134.11)"/><path class="cls-48" d="M230.44,260.58c-1.4.63-2.74,1.25-3,3.06a2.24,2.24,0,0,1-1.16,1.61c-5.27.33-8.31,4.46-12.3,7-1.57,1-3.75-.11-5.4,1.07a51.33,51.33,0,0,0-13.58-5c-2.4-.59-4-3.41-6.89-2.77,1.93-4.67,5.4-8,9.19-11.21,1.35-1.13,1.25-3.49,2.84-4.72,1.17-.91,1.92-2.36,3.69-2.47s2-1.37,1.93-2.78c2.41-1.7,4.85-3.22,8-2.86a2.5,2.5,0,0,0,1.93-.54c3.32-4.1,8.29-4.32,12.82-5.42a15.86,15.86,0,0,0,7.59-3.89,9.46,9.46,0,0,0,6.45,1.55c2.38-.28,4.8.75,7,2a3.39,3.39,0,0,1-1.17,3.78c-6,5.22-8.6,13-14.23,18.49C232.95,258.56,232.07,260,230.44,260.58Z" transform="translate(-24.17 -134.11)"/><path class="cls-49" d="M489.6,344.61a37.47,37.47,0,0,0-4.88,1.89c-1,.57-1.79,1-2.79.06a1.48,1.48,0,0,0-2.22,0c-3.05,3.87-7.92,1.34-11.58,3.42s-8.54-1.11-12.16,2.21c-3.29-1.55-5.68,1.56-8.71,1.68-3.18.13-4.11-1.61-4.33-4.26-1-.08-1.21.78-1.44,1.25-0.9,1.82-1.14,5.75-3.57.82-3.37.8-6.82-1.66-10.19,0.24-0.63.36-1.62,1.61-2,.63-1.38-3.53-3.31-1.33-4.55-.36-1.6,1.26-2.93-.11-4.34.19-2.81-12.58-10.29-22.15-19.51-30.69a169.07,169.07,0,0,1-26.24-30.76c1-.22,2.21-0.88,3-0.58,8.58,3.1,17.94,1.61,26.54,4.63,2.12,0.74,4.11,1.67,6.13,2.58,3.92,1.76,7.91,3.09,12.31,2.33,0.78-.14,1,0.48,1.23,1A2.88,2.88,0,0,0,421,302c3.9-.34,6.9,3.14,10.52,2.8a7.3,7.3,0,0,1,6,2c2.84,2.93,6.44,3.73,9.95,5,1,0.38,1.8,1.45,2.68,2.21s1.46,1.9,2.61,1.45c1.8-.71,2.53.17,3.32,1.52,0.46,0.78,1.17,1.61,2.3,1.12,1.57-.68,2.41.06,3.1,1.37,0.38,0.72,1,1.61,1.79,1.55,3.39-.26,3.94,2.09,4.37,4.55,0.18,1,.81,2.3,1.61,1.89,4.49-2.28,5.38,2.08,7.11,4.06,1.09,1.25,1.83,2.58,3.52,2.91a6.05,6.05,0,0,1,3.71,2.5,8.24,8.24,0,0,0,3.92,3.27C489.64,340.94,489.79,342.76,489.6,344.61Z" transform="translate(-24.17 -134.11)"/><path class="cls-50" d="M366,289.76c1.95,1.57,3.19,3.72,4.6,5.72a196.35,196.35,0,0,0,27.54,31.58,59.36,59.36,0,0,1,10.78,13.44c4.25,7.13,5.45,14.92,5.12,23.05a10.78,10.78,0,0,1-.63,2.34c-5.86-2.63-12.13-4.2-17.87-7.19a131.7,131.7,0,0,0-21.61-9.26,12,12,0,0,1-2.92-1.2c-5.3-3.36-11.2-5.38-17.08-7.36-3.16-1.07-5.93-2.82-8.81-4.35-7.89-4.17-16.33-7-24.47-10.64a54.57,54.57,0,0,1-8.16-4.1c-1.68-1.61-1.9-3.59-1.47-5.74,1-2.59,2.54-4.27,5.59-4.57,3.26-.32,4.92-3.41,7.39-5.13,1.39-1,2.38-2,4.31-1.61,2.11,0.45,3.48-.68,3.5-2.85s1.29-2.86,2.91-2.65c5.61,0.75,9.92-3.29,15.13-3.9,0.84-.1,1.36-0.88,2-1.36,2.32-1.73,4.72-3.08,7.8-1.87C362.39,293.19,363.69,290.09,366,289.76Z" transform="translate(-24.17 -134.11)"/><path class="cls-51" d="M433.82,391.22c-0.21.53-.73,1.21-0.57,1.58,0.92,2.15,0,3.34-1.84,4.23a2.54,2.54,0,0,0-.42,1.26c-3.4.28-6.33,3.58-10.12,1.58a1.37,1.37,0,0,0-1.29.3c-1.89,2.55-5.92,2.06-7.34,5.72-0.74,1.91-4.28.3-6,1.51-2.86,2-6.17-.38-9,1.38-2.65,1.66.28,1.27,1.29,2.95-8.46-2.79-15.18.36-21.91,3.51a1.87,1.87,0,0,1-1.94-1.25c-0.49-1.77-1.6-1.77-3-1.23s-2.54.64-3-1.18a2.56,2.56,0,0,0-.64-0.79c-2.87,2.54-3.84-1.42-5.62-1.62-4.59-.52-8.1-4-12.67-4.18-3.9-.19-6.69-3.22-10.36-4a1.77,1.77,0,0,1-1-.87c-1.69-3.3-5.51-3.88-8.1-4.26-3.68-.53-5.55-2.69-7.69-4.78a7.88,7.88,0,0,0-4.1-2.23c-2.06-.47-4.67,0-5.7-3-0.5-1.47-2.48-.89-3.85-1a62.27,62.27,0,0,1,1.94-11.43c0.48-1.95,1.52-2.62,3.3-1.76,12.83,6.25,26.3,4.92,39.8,3.44a37.46,37.46,0,0,1,19.27,3c8,3.47,16.24,6.15,25.25,4.85a25.48,25.48,0,0,0,14.14-6.5c0.62,2.82,3.44,3.36,5.29,4.75C422.94,385,428,388.65,433.82,391.22Z" transform="translate(-24.17 -134.11)"/><path class="cls-52" d="M306.77,375.8c-1,11.11-2.47,22.17-4.13,33.2-0.48,3.18-2.26,4.39-5.35,4.22-8.88-.5-17.37-2.78-25.67-5.79-10.7-3.88-21.3-8-30.89-14.36-2.28-1.51-2.67-2.93-2.11-5.5,2.37-11,9.5-18.67,17.6-25.67,2.93-2.54,6.05-4.85,9.15-7.18a11.52,11.52,0,0,0,3.81-4.49c1.24-.94,2.44-0.45,3.63.11,3.75,1.6,6.55,4.44,9.27,7.32a16.59,16.59,0,0,0,4.62,3.15c3.09,1.62,6.13,3.33,8.19,6.29a3.09,3.09,0,0,0,2,1.31c3.87,0.8,6.14,4.18,9.48,5.85A1.11,1.11,0,0,1,306.77,375.8Z" transform="translate(-24.17 -134.11)"/><path class="cls-53" d="M313.07,321.31A201.41,201.41,0,0,0,338,331.79c2.1,0.68,3.64,2.09,5.43,3.13,7.66,4.42,16.32,6.44,24.11,10.46,7,3.59,14.64,5.53,21.56,9.11,7.4,3.84,15.14,6.81,22.82,10a2.66,2.66,0,0,1,1.47,1.43c-1.25,8-6.5,12.58-15.25,13.32-6.76.57-13.51,0.12-19.67-2.73a50.83,50.83,0,0,0-30.1-4.43,23.9,23.9,0,0,1-6.52-6.74c-2.37-3.43-6.35-5.07-9.7-7.34-1.93-1.31-4-2.08-2.77-5,0.45-1.11-.56-1.95-1.29-2.7-1.07-1.1-2.12-2.17-2.33-3.82a2,2,0,0,0-1.47-1.84c-4.62-.86-4.86-4.88-5.89-8.21a9.47,9.47,0,0,0-2.16-3.93,13.91,13.91,0,0,1-3.75-10.27A2.46,2.46,0,0,1,313.07,321.31Z" transform="translate(-24.17 -134.11)"/><path class="cls-54" d="M366,289.76c-2.14,2.64-4.33,5-8.17,2.69a2.37,2.37,0,0,0-2.63.55c-3,2.74-7,3.21-10.43,5s-6.78,2-10.34,2.1c-1.23,0-1.74.14-1.7,1.73,0.1,3.4-1.64,4.43-5.32,3.48a1.43,1.43,0,0,0-1.84.54c-1.13,2.62-4.15,3.08-5.77,5.24a3.93,3.93,0,0,1-4.33,1.41c-1.91-.49-2.48,2.1-3.79,3.16s-2.46.08-3.57-.44c-9.64-4.42-19.25-8.92-29-13.07a2,2,0,0,1-.78-0.68c4.89-6.73,4.09-13.83,1.38-21.05,5.06-.25,8.9-3.58,13.35-5.38,1.56-.63,2.92-1.29,4.63-1,4.05,0.68,5.39-.1,6.86-3.87a2.23,2.23,0,0,1,.94-1.41,24.08,24.08,0,0,0,19,7.73c9.22-.38,16,3.5,22,9.79,2.94,3.06,6.24,2.2,7.93-1.79,3.23-.62,5.81,1.28,8.64,2.22Z" transform="translate(-24.17 -134.11)"/><path class="cls-55" d="M313.06,322c0.5,4.12,1.41,8,4.82,10.9,2.2,1.88,1.46,5.09,2.79,7.54,0.76,1.4.86,2.62,2.82,2.8s3.52,1.1,3.36,3.57c-0.12,1.78,1.67,2.33,2.61,3.39,0.75,0.84,1.75,1.77,1.12,2.67-2.09,3,.35,3.08,2.11,4.18,2.95,1.83,6.38,3.49,8.51,5.92a77.81,77.81,0,0,1,7.18,9.06c-15.46,2.48-29.92.64-42.43-9.76-1-.85-2.37-2.32-3.55-0.74-1,1.37.31,2.8,1.52,3.44,4.94,2.62,4.23,6.6,2.86,10.81-3.7-2.16-6.28-6.19-11.06-6.56a1.63,1.63,0,0,1-1.19-.63c-2.2-4.49-6.6-6.11-10.62-8.21-2.72-1.42-4.37-4.1-6.56-6.09-1.44-1.3-3.72-1.39-4.53-3.34,0.86-2,2.8-1.28,4.56-1.79-1-.93-2.37-1.69-2-3.23s1.92-1.4,3-2a15.55,15.55,0,0,0,5.52-5.16c1.94-3,3.78-5.53,8.23-5.31,2.4,0.12,5.73-.2,6.78-4.45,0.56-2.3,4.08-4.53,6.88-4.66A16.23,16.23,0,0,0,313.06,322Z" transform="translate(-24.17 -134.11)"/><path class="cls-56" d="M345.55,208.33c1.54,1.37,3.27,1.9,5.09.72,2.52-1.62,5.17-.13,7.8-0.51,6-.85,12-1.47,17.85-3a5.17,5.17,0,0,1,1-.06c2.82,2.77,7.09,1.78,10.18,3.94,1,0.68,2.25.29,3.4-.09s2.53-.74,3.47.62c-6.58,6.69-13.12,13.41-19.74,20.07C365.79,239,356.87,247.8,348,256.72c-1.68,1.7-2.94,2.45-5.12.43-2.38-2.21-5.27-3.86-7.93-5.75,2.89-1.63,3.61-3.44,2.66-7.09-0.84-3.21-2.22-7.27.57-10.65a0.76,0.76,0,0,0,.22-0.65c-2-3.92,1.41-7,1.56-10.61,0.1-2.42,2.1-3.9,2.55-6.33S344.64,211,345.55,208.33Z" transform="translate(-24.17 -134.11)"/><path class="cls-57" d="M230.44,260.58c2.86-3.72,5.55-7.58,9-10.8,1.42-1.32,2-3.49,2.55-4.88,1.66-4.12,6.66-5.33,7.51-9.74,6-2.07,11.79-5.38,17.81-6.3,6.2-.94,11.34-4.61,17.5-5,1.63,4,1.05,8.26,1.55,12.39,0.3,2.48,1.29,5,.65,7.56a15.25,15.25,0,0,1-6.88,9c-6.54,4-12.12,9.26-18,14.08-4.05-3.46-9.2-1.52-13.7-2.78C242.5,262.48,236.11,263.36,230.44,260.58Z" transform="translate(-24.17 -134.11)"/><path class="cls-58" d="M313.06,322c-1.46,2.25-3.08,4.12-6.21,3a2.16,2.16,0,0,0-2.59.6c-1.65,2.3-5,2.66-5.64,6.45-0.5,3-4.8,2.73-6.9,2.43-4.3-.62-5.69,2.27-6.88,4.76s-4.56,2.73-4.78,5.74a2.37,2.37,0,0,1-1.27.08c-1.29-.44-2.58-0.25-2.8,1.09s0.94,2,2.28,2.1a1.12,1.12,0,0,1,1.18,1.38c-0.18.72-.92,0.58-1.48,0.61-1.74.1-3.55-.3-5.16,0.72l-3.64-.74c-0.08-6-1.55-11.83-2.34-17.75-1.09-8.14-.12-15.61,5.21-22.21,2.26-2.79,3.73-6.16,6.24-8.79,5.27,1.14,10,3.67,14.84,5.85l18.53,8.33c0.08,2-.44,4.12,1.42,5.65V322Z" transform="translate(-24.17 -134.11)"/><path class="cls-59" d="M287,243.81c-2.34-6.47-2.22-13.21-2.19-19.95,0.65-2,5.18-1.57,2.87-5.28,2-.19,2.38,2.47,4.2,1.74,3-1.58,7-1,9.32-4.24a1.83,1.83,0,0,1,1.61-.4c5.95,1.72,11-1.16,16.21-3.16a13.39,13.39,0,0,1,5-1.19c5.38,0.25,10.25-3.41,15.8-1.82,1,0.29,2.38-.77,3.59-1.2h2.13c0.12,2.62.45,5.3-2.31,7,1.39,3.52-3.89,5.43-2.21,9.08a2,2,0,0,1-.71,1.47c-1.88,1.73-2.64,3.54-.87,5.81a1.64,1.64,0,0,1,.29,1.28c-3,2.38-1.58,5.49-1.66,8.42a7.84,7.84,0,0,0,.38,3.69c1.78,4,.88,5.55-3.49,6.35-2.4-.53-2.6-2.22-2.44-4.28,0.29-3.74.76-7.52-.23-11.22-0.72-2.69-1.32-5.69-4.65-6.41-3.56-.78-6.9,0-9.27,2.87-2.59,3.18-4.88,6.6-7.31,9.92-0.31.42-.69,0.8-1.29,1.5-0.62-3.41.18-6.48-.85-9.41-1.09-3.1-2.49-6-5.87-7-3.59-1.05-6,1.21-8.25,3.54C291.23,234.65,289.8,239.65,287,243.81Z" transform="translate(-24.17 -134.11)"/><path class="cls-60" d="M305.44,268.77c0.5,3.34-1.62,5.09-4.06,6.63a1.91,1.91,0,0,1-1.22.46c-5.5-3.65-8.88,3.26-13.75,2.76a2.13,2.13,0,0,0-1.06.86c-1,1.1-1.8,2.7-3,3.22-1.51.64-.54-2.84-2.65-2.27-2.86-5.3-2.5-10.33.69-15.48,5.56-9,9-19.07,14.22-28.22a15.87,15.87,0,0,1,3.44-4.41c3.1-2.6,6.23-1.89,7.93,1.82a10,10,0,0,1,.74,4.12,91.18,91.18,0,0,1-2.21,21.65A12.7,12.7,0,0,0,305.44,268.77Z" transform="translate(-24.17 -134.11)"/><path class="cls-61" d="M363.08,286.71c-3.27.77-5.72-1.63-8.64-2.22,0.53-7.42-.3-14.55-4.7-20.86-1.2-1.72-.65-3,0.67-4.33q7.48-7.46,14.92-15a4.7,4.7,0,0,0,4.61,1.44c2.93-.39,6.1-0.36,8,2.79-4.58,8.8-10,17.14-15.29,25.48-2.54,4-3.81,7.32-.09,11.07A4.23,4.23,0,0,1,363.08,286.71Z" transform="translate(-24.17 -134.11)"/><path class="cls-62" d="M377.89,248.57c-3-1.51-5.86-2.88-9.46-1.56-1.58.58-3.22-.43-3.11-2.67q11.83-12,23.65-24c4.4-4.49,8.79-9,13.53-13.21Q391,228.35,377.89,248.57Z" transform="translate(-24.17 -134.11)"/><path class="cls-63" d="M403.8,351.63c0,2.68-.73,3.52-2.46,3.72-3.73.42-9.41-4.43-9.38-8.25,0-2.78,2.14-3.08,4.2-3C399.53,344.32,403.8,349.19,403.8,351.63Z" transform="translate(-24.17 -134.11)"/><path class="cls-64" d="M302.38,238.33c-1.67,7.22-1.19,13.9-2.84,20.3-0.35,1.36-.29,3.43-2.41,3.34-1.81-.08-1.69-2-2.06-3.22a9.67,9.67,0,0,1,.21-6.89C297.22,247.43,298.43,242.61,302.38,238.33Z" transform="translate(-24.17 -134.11)"/></svg>