<?xml version="1.0" encoding="utf-8"?>
<!-- Generator: Adobe Illustrator 19.2.1, SVG Export Plug-In . SVG Version: 6.00 Build 0)  -->
<svg version="1.1" id="Layer_1" xmlns="http://www.w3.org/2000/svg" xmlns:xlink="http://www.w3.org/1999/xlink" x="0px" y="0px"
	 viewBox="0 0 877.1 931.1" style="enable-background:new 0 0 877.1 931.1;" xml:space="preserve">
<style type="text/css">
	.st0{fill:none;}
	.st1{fill:#FFFFFF;}
</style>
<title>logov4</title>
<path class="st0" d="M877.1,699.1v232.1H0V0h819.1c-3,2.1-6.3,3.8-8.9,6.3c-6.2,6-11.9,12.6-18,18.7
	c-71.5,71.6-143,143.1-214.6,214.6c-3.7,3.7-7.8,7.2-11.8,10.9c-6.3-4.9-12-9.7-18.2-14c-10.8-7.5-21.9-14.5-32.9-21.8
	c-4-2.4-6.2-6.8-5.7-11.4c0.8-11.8,1.8-23.6,1.7-35.4s-1.9-23.6-7.8-34.2c-3.7-6.6-9-11.1-16.7-12.1c-17-2.2-31,3.7-41.3,17
	c-9,11.5-16.9,23.9-25.3,35.8c-2.8,3.9-5.9,7.7-9.6,12.5c0-9.1,0.1-16.6,0-24c-0.2-13.8-3.3-26.7-12-37.9
	c-11.9-15.3-27.4-17.1-42.5-4.8c-12,9.8-20.6,22.1-27.5,35.8s-14.1,27.2-20.6,41c-4.2,9.3-11,17.1-19.5,22.7
	c-12.5,8.2-25,16.5-36.8,25.8c-15.4,12.2-30.4,24.8-44.9,38.1c-12.4,11.4-25.1,22.8-35.2,36c-17.2,22.7-28.8,49-34.1,77
	c-7.7,39.8-27.4,73.2-55.2,102.2c-18.9,19.8-33.8,42.6-46.1,66.8C21.1,594.5,11.8,625.3,5.8,657c-5.2,27.1-6.4,54.2-2.6,81.4
	c2.6,18.9,6.8,37.7,9.1,56.7c2,17.3,2.3,34.8,3.5,52.2c0.5,7.2,0.8,14.6,2.5,21.6c1.5,6.3,6.4,9,13.2,9.3c9.7,0.4,17.3-3.7,23.7-10
	c7.2-7.1,13.6-15,20.6-22.4c10-10.7,9.9-10.3,22.8-3.2c21.7,11.9,43.2,24.4,65.8,34.5c21.6,9.7,44.4,17.1,66.8,24.8
	c20.6,7.1,41.2,14.2,62.3,19.6c24.8,6.4,50.1,10.4,76.1,8.4c11.8-0.9,18.9-5.1,20.4-15c6-41.8,11.8-83.7,17.4-125.5
	c2.3-17.2,4.5-34.3,10.3-50.8c1.4-3.9,3.2-5.4,7.2-3.9c4.5,1.7,9.2,2.9,13.6,4.8c21.4,9.2,43.6,15.6,66.9,16.8
	c34.3,1.8,68.4-2.1,102.5-5.2c25-2.3,49.3,0.8,72.7,10.9c14.6,6.5,29.5,12,44.8,16.7c30.5,9,61.4,11.5,92.4,1.6
	c31.4-10.1,51.2-30.6,56.8-63.7C875.2,710.8,876.2,704.9,877.1,699.1z"/>
<path class="st1" d="M877.1,699.1c-1,5.8-1.9,11.7-2.9,17.5c-5.6,33.1-25.3,53.7-56.8,63.7c-31,9.9-61.9,7.3-92.4-1.6
	c-15.3-4.7-30.2-10.3-44.8-16.7c-23.4-10.1-47.6-13.2-72.7-10.9c-34.1,3.1-68.2,7-102.5,5.2c-23.3-1.2-45.5-7.6-66.9-16.8
	c-4.4-1.9-9.1-3.1-13.6-4.8c-4-1.5-5.9,0-7.2,3.9c-5.8,16.5-8,33.6-10.3,50.8c-5.6,41.9-11.4,83.8-17.4,125.5
	c-1.4,10-8.5,14.1-20.4,15c-25.9,2-51.2-2-76.1-8.4c-21-5.4-41.7-12.5-62.3-19.6c-22.5-7.7-45.2-15-66.8-24.7
	c-22.5-10.1-44-22.7-65.8-34.5c-12.9-7-12.7-7.5-22.8,3.2c-6.9,7.3-13.3,15.3-20.6,22.3c-6.4,6.3-14,10.4-23.7,10
	c-6.8-0.3-11.7-3-13.2-9.3c-1.6-7-2-14.4-2.5-21.6c-1.2-17.4-1.4-34.9-3.5-52.2c-2.2-19-6.4-37.7-9.1-56.6
	c-3.9-27.2-2.6-54.4,2.6-81.4c6.1-31.8,15.4-62.5,29.9-91.3c12.3-24.2,27.1-47,46.1-66.8c27.8-29,47.5-62.4,55.2-102.2
	c5.3-27.9,17-54.3,34.1-76.9c10.1-13.3,22.8-24.7,35.2-36c14.5-13.3,29.5-25.9,44.9-38.1c11.7-9.3,24.2-17.6,36.8-25.8
	c8.5-5.6,15.3-13.5,19.5-22.8c6.6-13.8,13.7-27.4,20.6-41.1s15.6-26,27.5-35.7c15.1-12.3,30.6-10.5,42.5,4.8
	c8.7,11.1,11.8,24,12,37.9c0.1,7.5,0,14.9,0,24c3.7-4.9,6.8-8.6,9.6-12.5c8.5-11.9,16.3-24.3,25.3-35.8c10.3-13.3,24.3-19.2,41.3-17
	c7.7,1,13.1,5.5,16.7,12.1c5.9,10.6,7.6,22.4,7.8,34.2s-0.9,23.6-1.7,35.4c-0.5,4.6,1.7,9.1,5.7,11.4c11,7.2,22,14.3,32.9,21.8
	c6.2,4.2,11.9,9.1,18.2,14c4-3.7,8-7.2,11.8-10.9C649.2,168.1,720.8,96.6,792.2,25c6.1-6.1,11.8-12.7,18-18.7
	c2.6-2.5,5.9-4.2,8.9-6.3h6c13.3,6.5,12,14.1,6.8,25.4c-0.3,0.6-0.6,1.2-1,1.7c-17.6,29-35.3,58-53,87
	c-43.9,71.9-87.8,143.8-131.6,215.8c-5.4,8.8-5,12,1.1,20.3c14,18.9,27.8,37.8,41.9,56.6c20.8,27.9,41.8,55.7,66.5,80.3
	c21.6,21.5,43.6,42.6,64.6,64.8c26.8,28.4,45.1,61.7,52.9,100.3c1.5,7.6,2.6,15.3,3.8,22.9L877.1,699.1L877.1,699.1z M816.4,23.3
	l-1.6-1.3c-9.7,9.5-19.6,18.9-29.2,28.6c-66.5,66.9-132.9,133.9-199.3,200.9c-7.4,7.5-8,11-2,19.5c18.7,26.4,21.7,56.3,19.7,87.3
	c-0.4,7.2-3.8,13.3-11.2,15.7c-7.9,2.6-14.9,0.9-21.2-4.9c-9-8.3-18.6-16.2-27.7-24.4c-12.5-11.3-27.3-16.8-44-17.6
	c-10.8-0.5-21.6-1-32.3-1.8c-20.6-1.5-40-6.9-57.5-18.1c-20.9-13.4-27.7-28.5-22.3-52.7c5.6-24,8.7-48.5,9.2-73.1
	c0.1-9,0.4-17.9,0.2-26.9c-0.1-7.2-2.9-14.2-7.7-19.6c-7.6-8.7-17.5-10.3-26.5-3.1c-5.3,4.2-10.6,9-14,14.7
	c-8.3,13.8-17.1,27.6-22.9,42.5c-13.3,33.6-31.5,64.6-48.2,96.3c-7.3,13.9-9.1,27.6-3.9,42.3c4.4,12.4,9.6,24.5,12.8,37.2
	c5.7,22.7,3.6,44.5-10.5,64.3c-13.3,18.7-26,37.8-38.9,56.8c-5.6,8.1-9.6,17.2-11.8,26.7c-4.3,18.2-2.9,36.5-1.1,54.7
	c1.9,19,6,37.8,8.7,56.7c0.9,6.1,1.1,12.3,0.6,18.4c-0.7,8.4-6.7,13.9-13,18.8c-15.3,12-31.4,23.1-45.9,36
	c-18.6,16.6-36.4,34.1-50.4,55.2c-13.1,19.7-20.7,41.2-24.4,64.3c-0.3,2,0.5,5.3,2,6.2c13.8,8.9,27.6,18.1,42,26
	c13.4,7.2,27.6,13.2,41.6,19.2c42.7,18.2,86.1,34.7,131.9,43.4c12.9,2.4,25.9,4.6,39,5.1c12.7,0.5,21-2.1,23.7-19.1
	c2-13.2,4-26.3,5.7-39.5c4.1-31.8,7.9-63.7,11.9-95.5c1.4-11.4,3.3-22.7,5-34c0.6-4.2-1-7.5-4.2-10.1c-4.8-3.9-9.6-7.7-14.5-11.4
	c-5.3-4-7.7-8.9-6.4-15.5c6.7-1.7,9.3-1.3,14.3,3.1c10.1,8.9,20.2,17.7,32.6,23.7c47.8,23.4,97.9,30,150.1,21.3
	c20.8-3.5,41.7-4,62.7-3.3c18.8,0.6,35.9,7.7,53,15c35.6,15.2,72.2,23.3,111.3,17.1c28.4-4.5,47.8-18.8,56.6-46.5
	c3.8-12,5.8-24.2,4.9-36.8c-1.8-24-4.5-47.8-15.5-69.7c-11.4-22.7-26.2-43.4-43.9-61.6c-15.5-15.8-31.8-30.8-47.5-46.5
	c-18-17.8-34.7-36.9-49.8-57.1c-24.4-32.9-49.2-65.5-73.8-98.2c-7.1-9.5-7.2-12.6-1.6-21.7c16.9-27.7,34-55.3,50.8-83.1
	c36.8-60.6,73.6-121.3,110.3-182C800.6,51.3,808.4,37.2,816.4,23.3z"/>
<path class="st0" d="M877.1,675.1c-1.3-7.6-2.3-15.3-3.8-22.9c-7.8-38.6-26.1-71.9-52.9-100.3c-20.9-22.2-42.9-43.3-64.6-64.8
	c-24.8-24.6-45.8-52.4-66.6-80.3c-14-18.8-27.9-37.8-41.9-56.6c-6.1-8.3-6.5-11.4-1.1-20.3C690.1,258,734,186.1,777.9,114.2
	c17.7-29,35.4-58,53-87c0.4-0.6,0.7-1.1,1-1.7c5.2-11.4,6.5-18.9-6.8-25.4h52L877.1,675.1L877.1,675.1z"/>
<path class="st0" d="M816.4,23.3c-8,13.9-15.8,28-24.1,41.8c-36.7,60.7-73.4,121.4-110.3,182c-16.8,27.7-33.9,55.4-50.8,83.1
	c-5.6,9.1-5.5,12.2,1.6,21.7c24.6,32.8,49.4,65.3,73.8,98.2c15.2,20.2,31.8,39.3,49.8,57.1c15.7,15.6,32,30.6,47.5,46.5
	c17.7,18.2,32.5,38.9,43.9,61.6c11,21.9,13.7,45.7,15.5,69.7c1,12.6-1,24.8-4.9,36.8c-8.9,27.7-28.2,42-56.6,46.5
	c-39.1,6.2-75.7-1.9-111.3-17.1c-17-7.3-34.2-14.3-53-15c-21-0.7-41.9-0.2-62.7,3.3c-52.2,8.7-102.3,2.1-150.1-21.3
	c-12.3-6-22.4-14.8-32.6-23.7c-4.9-4.3-7.6-4.8-14.3-3.1c-1.3,6.6,1.1,11.5,6.4,15.5c4.9,3.7,9.8,7.5,14.5,11.4
	c3.1,2.6,4.8,5.8,4.2,10.1c-1.7,11.3-3.5,22.7-5,34c-4,31.8-7.8,63.7-11.9,95.5c-1.7,13.2-3.7,26.4-5.7,39.5
	c-2.6,17-11,19.5-23.7,19.1c-13-0.5-26.1-2.6-39-5.1c-45.7-8.6-89.1-25.1-131.8-43.3c-14.1-6-28.2-12-41.6-19.3
	c-14.5-7.8-28.2-17-42-26c-1.4-0.9-2.3-4.2-2-6.2c3.7-23.1,11.4-44.6,24.4-64.3c14-21.1,31.7-38.6,50.4-55.2
	c14.5-12.9,30.6-24,45.9-36c6.3-4.9,12.2-10.3,13-18.8c0.5-6.1,0.3-12.3-0.6-18.4c-2.7-18.9-6.8-37.7-8.7-56.7
	c-1.8-18.1-3.2-36.4,1.1-54.7c2.3-9.6,6.3-18.6,11.8-26.7c12.9-19,25.6-38.1,38.9-56.8c14.1-19.9,16.2-41.6,10.5-64.3
	c-3.2-12.7-8.4-24.9-12.8-37.2c-5.2-14.7-3.4-28.4,3.9-42.3c16.7-31.8,35-62.7,48.1-96.4c5.8-14.9,14.6-28.7,22.9-42.5
	c3.4-5.7,8.8-10.5,14-14.7c9-7.1,18.9-5.6,26.5,3.1c4.8,5.4,7.6,12.3,7.7,19.6c0.2,9-0.1,17.9-0.2,26.9c-0.5,24.6-3.6,49.1-9.2,73.1
	c-5.5,24.2,1.3,39.3,22.3,52.7c17.5,11.2,36.9,16.6,57.5,18.1c10.8,0.8,21.6,1.2,32.3,1.8c16.7,0.8,31.5,6.3,44,17.6
	c9.2,8.2,18.7,16.1,27.7,24.4c6.3,5.8,13.2,7.5,21.2,4.9c7.4-2.5,10.7-8.6,11.2-15.7c1.9-31-1-60.9-19.7-87.3c-6-8.5-5.4-12,2-19.5
	c66.4-66.9,132.8-133.9,199.2-200.8c9.6-9.7,19.5-19,29.2-28.6L816.4,23.3z M803.5,666.4c12.6,0,16-3.5,14.5-14.8
	c-0.5-4.3-2-8.4-4.3-12c-3.5-5-7.5-9.7-11.9-14c-7.3-7.4-16.4-9.1-26.2-6.9c-6.2,1.3-10.2,7.3-8.9,13.5c0.2,1.1,0.6,2.2,1.2,3.2
	c3.2,6,6.9,11.7,11.2,17C785.7,660.4,793.2,667.4,803.5,666.4L803.5,666.4z M378.2,163l-1.3-0.7c-3.2,4.1-7.3,7.8-9.5,12.4
	c-7.1,15-13.9,30.2-19.9,45.7c-5.9,15.1-0.7,29.3,4.9,43.3c9.4-1.1,9.9-1,12.3-9.4c2.4-8.1,4.2-16.4,5.4-24.8
	c1.8-15,2.6-30.1,4.2-45.1C375,177.1,376.8,170,378.2,163z"/>
<path class="st1" d="M803.5,666.4c-10.3,1-17.8-6-24.4-13.8c-4.3-5.3-8-11-11.2-17c-3.1-5.5-1.1-12.5,4.4-15.6c1-0.6,2.1-1,3.2-1.2
	c9.8-2.3,19-0.6,26.2,6.9c4.4,4.3,8.4,9,11.9,14c2.3,3.6,3.8,7.7,4.3,12C819.5,662.9,816.1,666.4,803.5,666.4z"/>
<path class="st1" d="M378.2,163c-1.4,7.1-3.2,14.1-4,21.2c-1.7,15-2.4,30.1-4.2,45.2c-1.1,8.4-2.9,16.7-5.3,24.8
	c-2.4,8.4-2.9,8.3-12.3,9.4c-5.7-13.9-10.8-28.2-4.9-43.3c6-15.5,12.9-30.6,19.9-45.7c2.2-4.6,6.3-8.3,9.5-12.4L378.2,163z"/>
<path d="M-79-31.8"/>
</svg>
