<?xml version="1.0" encoding="utf-8"?>
<!-- Generator: Adobe Illustrator 19.2.1, SVG Export Plug-In . SVG Version: 6.00 Build 0)  -->
<svg version="1.1" id="Layer_1" xmlns="http://www.w3.org/2000/svg" xmlns:xlink="http://www.w3.org/1999/xlink" x="0px" y="0px"
	 viewBox="0 0 600.8 600.8" style="enable-background:new 0 0 600.8 600.8;" xml:space="preserve">
<style type="text/css">
	.st0{fill:#1B1B1B;}
	.st1{fill:#F5F5F5;}
	.st2{fill:#F4F4F4;}
	.st3{fill:#F4F5F5;}
	.st4{fill:#F3F4F4;}
	.st5{fill:#F0F1F1;}
	.st6{fill:#F1F2F2;}
	.st7{fill:#B1BFBF;}
	.st8{fill:#96BFBF;}
</style>
<title>sticker</title>
<path class="st0" d="M293.2,130.7c2.9-2.5,5.2-5.5,7-8.9c4-7.1,8.7-13.8,14.1-19.9c3.1-3.6,7-6.5,11.2-8.6c1.4-0.7,3-1.2,4.5-1.2
	c3.1-0.2,6.2-0.2,9.2,0c4.6,0.5,7.6,3.4,9.8,7.3c2.1,4,3.4,8.5,3.9,13c1.1,8.2,1,16.4-0.2,24.6c-0.2,2.1-0.2,4.2-0.1,6.2
	c0.2,1.5,1,2.9,2.2,3.8c1.1,0.9,2.2,1.8,3.4,2.5c9,4.9,17.2,11.1,25.2,17.5c3.3,2.6,3.3,2.6,6.3-0.4
	c44.4-43.8,88.2-88.1,132.4-132.2c2.7-2.7,5.2-5.6,7.8-8.4c1.9-2.1,4-4,6.3-5.7c4-2.8,10.3-0.5,12.1,4.1c0.4,1.4,0.5,3,0.1,4.4
	c-0.6,2.6-1.6,5.1-3.1,7.3l-42.5,69.9c-11.8,19.4-23.6,38.8-35.4,58.1c-10.6,17.4-21.2,34.8-31.9,52.1c-0.8,1.4-1.5,2.8-2.3,4.2
	c-0.8,1.5-0.8,3.3,0,4.8c0.7,1.5,1.6,2.9,2.6,4.2c6.6,8.5,12.9,17.4,19.3,26.1c7.3,9.9,14.6,19.8,22.2,29.5c0.8,1,1.9,1.7,3.2,2.1
	c2.7,1,5.7,1,8.4,0c2.2-0.9,4.6-1,6.9-0.4c0.8,0.2,1.7,0.1,2.5-0.2c3.4-1.1,7-1.1,10.3,0.1c1.9,0.7,3.9,0.7,5.8,0
	c3.5-1.2,7-0.9,10.6,0c3.4,0.8,6.5,1.8,9.2,4.1c3.2,2.5,5.6,6,6.7,10c1.1,4.2,1.7,8.5,1.5,12.8c-0.1,3.8,0,7.5,0,11.2
	c0,1.7-0.2,3.3-0.6,4.9c-1.2,5.9-4.6,9.6-10.5,11c-0.2,0.1-0.4,0.2-0.6,0.4c0.5,0.8,1.1,1.5,1.9,2.1c7.8,7.6,14.9,15.9,20.9,25
	c9.4,14,15.7,29.8,18.5,46.4c0.7,4.5,1.1,9.1,1.3,13.6c0.3,8.2-0.5,16.5-2.3,24.5c-1.7,8-5.5,15.4-11.1,21.4
	c-7.3,7.8-16.6,12-26.7,14.7c-8.2,2.1-16.8,2.9-25.2,2.3c-10-0.7-19.9-2.6-29.5-5.7c-8-2.4-15.9-5.4-23.5-9
	c-7.5-3.6-15.6-5.7-23.9-6.3c-4.3-0.3-8.6-0.8-12.9-0.8c-1.4,0-2.8,0.2-4.2,0.3c-8,0.6-16,1.2-24,2.3c-5.1,0.8-10.3,1.1-15.5,1.2
	c-6.2,0-12.3-0.1-18.5,0c-10.9,0.2-21.3-1.9-31.6-4.9c-5.3-1.6-10.4-3.5-15.4-5.8c-2.6-1.2-5.4-2.1-8.3-2.6c-2-0.3-2-0.3-2.8,1.5
	c-2.4,6.2-4.1,12.7-5,19.2c-1.4,8.8-2,17.8-3.1,26.7c-1.1,9.4-2.3,18.7-3.7,28.1c-1,7-2,14.1-3.2,21.1c-0.7,4.3-1.6,8.6-2.4,13
	c-0.5,2.8-2.3,5.1-4.9,6.2c-1.9,1-4.1,1.5-6.2,1.6c-12.6,0.9-25.3-0.1-37.6-3c-4.8-1.2-9.8-1.9-14.6-3c-7-1.6-13.7-4.1-20.4-6.5
	c-9.3-3.3-18.6-6.5-28-9.8c-11.1-3.7-22-8.1-32.6-13.2c-6.3-3.1-12.4-6.7-18.7-10c-4.3-2.3-8.5-4.9-12.7-7.3c-1.7-1-3.5-1.9-5.4-2.5
	c-1.1-0.4-2.4-0.1-3.1,0.8c-3.7,3.7-7.2,7.6-10.5,11.7c-3.1,3.8-6.8,7.1-11,9.7c-3.9,2.3-8,2.6-12.3,1.8c-1.8-0.5-3.3-1.8-4-3.5
	c-1.4-2.5-2.2-5.2-2.2-8.1c0-4.2,0.2-8.3,0.2-12.5c-0.1-8-0.8-15.9-1.9-23.8c-0.6-4.8-0.9-9.7-1.8-14.5c-1.3-7.2-2.8-14.3-4.1-21.5
	c-0.4-2.3-0.6-4.6-0.8-6.9c-0.4-5.4-0.5-10.8-0.4-16.2c0.4-16,3.7-31.6,8-47c3.6-12.2,8.2-24.1,13.8-35.5c2-4.3,5-8,7.4-12.1
	c0.5-0.8,1-1.5,1.5-2.4c-1.4-0.9-3-1-4.5-1.3c-3.9-1.1-7.3-3.3-9.8-6.5c-4-4.7-4.9-10.5-5.3-16.3c-0.3-5.2-0.3-10.5,0-15.8
	c0.3-5.4,1.9-10.3,7-13.2c3.2-1.9,7-2.7,10.8-2.1c2.2,0.4,4.6,0.6,6.6,2c0.6,0.4,0.9,0,1.3-0.2c2.7-1.2,5.5-2.2,8.4-1.9
	c3.5,0.6,7.1,0.5,10.6-0.1c0.7-0.1,1.4-0.1,2,0.1c1.2,0.4,2.5,0.3,3.7-0.1c2.3-0.7,4.8-0.9,7.2-0.6c0.7,0.2,1.5-0.2,1.8-0.9
	c0-0.1,0-0.1,0-0.2c0.7-1.6,1.7-3.1,3-4.2c0.9-0.8,1.6-1.9,2.1-3c3.1-6.2,4.4-12.9,5.9-19.5c1.7-7.8,3.4-15.6,6.9-22.8
	c4.1-8.5,8-17,13.8-24.6c1-1.4,2.2-2.7,3.4-4c3.1-3.1,6.3-6.2,9.4-9.4c5-5.2,10.4-9.8,15.8-14.5c3.6-3.1,7.1-6.5,10.8-9.7
	c5.4-4.5,11.2-8.6,17.2-12.2c3.9-2.3,7.5-4.9,10.9-7.9c2.5-2.2,5.5-3.8,8-6c1.7-1.5,3.2-3.4,4.2-5.5c5.1-10.2,10.2-20.4,15.5-30.5
	c4.1-8.3,10.1-15.6,17.4-21.2c6.3-4.7,14.2-4.5,20,0.5c2.6,2.3,4.7,4.9,6.4,7.9c3,5.6,4.5,11.8,4.4,18.2
	C293.3,120.9,293.2,125.6,293.2,130.7z"/>
<path class="st1" d="M260,569.3c-6.3,0.2-12.1-1.3-17.9-2.2c-8.9-1.4-17.4-4.1-26.2-6c-3.2-0.7-6.3-1.6-9.3-2.8
	c-9.8-3.7-19.8-6.8-29.6-10.6c-5.8-2.3-11.6-4.6-17.3-7.1c-6.5-2.8-13.1-5.2-19.4-8.5c-4.7-2.4-9.2-5-13.6-7.9
	c-6-3.8-12-7.4-18.1-11c-1.2-0.5-1.9-1.9-1.6-3.2c0.4-2.3,1-4.5,1.4-6.8c3.1-17.5,11.8-32.2,23.2-45.4c6.5-7.5,13.8-14.2,20.9-21.1
	c6.6-6.4,14.4-11.2,21.7-16.7c3.5-2.6,7.1-5.2,10-8.6c2.2-2.6,3.5-5.9,3.4-9.4c-0.1-5.1-0.6-10.1-1.5-15.1c-1-5.5-1.7-11.1-2.6-16.7
	c-0.6-3.6-1.4-7.1-1.8-10.8c-0.1-1.5-0.1-3-0.2-4.5c-0.1-3.7-0.3-7.5-0.6-11.2c-0.1-1.9-0.1-1.9,1.8-2.1c2.9-0.5,5.7-1.1,8.5-2
	c0.9-0.3,1.9-0.3,2.8,0.1c4.4,1.7,9.3,1.7,13.7,0.1c0.6-0.1,1.1-0.3,1.6-0.7c0.6-0.6,1.2-0.4,2,0c3.7,1.5,7.5,2.7,11.6,1.5
	c1.7-0.5,3.6-0.5,5.2-1.7c0.4-0.3,1-0.2,1.3,0.2c2.8,1.2,5.7,2.3,8.7,1.9c3.8-0.6,7.7-0.6,11.5,0c3,0.5,6.1-0.6,8.9-2
	c0.6-0.3,1.4-0.3,2,0c3.4,1.3,7,2.3,10.6,2.7c1.7,0.3,3.5,0.1,5.2-0.3c3.4-0.9,6.9-1.1,9.9-3.2c0.6-0.4,1,0,1.6,0.2
	c5.7,2.8,11.6,4.4,18,2.6c0.8-0.3,1.6-0.3,2.4-0.2c2,0.5,4.2,0.5,6.2-0.1c1.3-0.4,2.6-0.4,3.9-0.1c4.1,1.2,7.9,0,11.6-1.4
	c0.4-0.3,1-0.4,1.6-0.2c5,2.6,10.2,2.6,15.5,0.7c0.9-0.3,1.9-0.3,2.8,0c2.4,0.7,4.8,1.2,7.3,1.8c2.6,0.5,5.2,0.3,7.6-0.5
	c1.1-0.3,2.3-0.4,3.4-0.1c1.9,0.5,3.8,0.4,5.7-0.2c1.5-0.5,3.1-0.5,4.6,0c1.4,0.4,2.8,0.5,4.2,0.4c0.6-0.1,1.3,0.2,1.5,0.9
	c1.8,4.1,4.9,6.6,9.3,7.9c5.3,1.6,10.3,0.7,15.2-0.9c2.5-1,4.7-2.6,6.4-4.7c0.5-0.6,1-1.3,1.5-2c0.5-1.1,1.8-1.7,3-1.3
	c3.9,0.7,7.8-0.2,11.4-1.8c0.5-0.3,1.2-0.4,1.8-0.1c3,1.4,6.2,1.9,9.4,2.5c2.1,0.4,4.3,0.4,6.4-0.3c3.2-0.9,6.6-1.1,9.4-3.2
	c0.8-0.6,1.4,0.2,2,0.5c5,2,10,3.7,15.5,3c2.6-0.5,5.2-1.1,7.8-1.9c0.9-0.3,1.9-0.3,2.8-0.1c2.5,0.8,5.1,1.6,7.8,1.5
	c2.1-0.2,4.3-0.7,6.3-1.4c0.9-0.3,1.9-0.3,2.9,0c2.5,0.6,4.9,1.5,7.6,1.4c2.1-0.3,4.1-0.7,6.1-1.3c0.8-0.3,1.7-0.1,2.2,0.5
	c8,8,16.2,15.8,22.8,25.1c4.5,6.2,9,12.4,12.5,19.2c4.7,8.6,7.8,18,9.1,27.8c0.6,5.2,1.4,10.3,1.9,15.5c0.9,9.6-0.6,19.3-4.3,28.2
	c-5.1,12.5-14.5,20-27.6,22.9c-5.4,1.1-10.8,1.8-16.3,2.1c-12.7,0.8-25-1.3-37.1-4.8c-8.6-2.5-16.9-6-25.2-9.5
	c-7-2.9-14.2-5.3-21.8-5.9c-8.4-0.6-16.8-0.6-25.2-0.1c-6.6,0.3-13,1.6-19.5,2.5c-28,4.2-56.6,0.2-82.3-11.5
	c-7.5-3.5-14.5-7.7-20.5-13.6c-1-1-2.3-1.7-3.2-2.8c-2-2.2-4.7-2.3-7.4-2.1c-1,0.1-1.3,0.6-1.3,1.6c-0.2,2.7,0.9,5.3,2.9,7.1
	c2.2,1.9,4.7,3.5,6.9,5.3c0.5,0.4,1.1,0.8,1.6,1.2c3.6,2.6,4.4,6,3.8,10.3c-0.9,7.5-2.7,14.8-3.6,22.3c-0.6,4.8-1.2,9.5-1.5,14.3
	s-1.3,9.7-1.8,14.6c-0.6,5.9-1.4,11.8-2.2,17.8c-1.4,9.8-2.5,19.6-4.1,29.3c-0.2,1.6-0.6,3.3-1.2,4.8c-1.1,3.5-4.2,6-7.8,6.6
	C264.4,569.3,262.2,569.5,260,569.3z"/>
<path class="st1" d="M536.4,33.7c-2.5,5.4-5.5,10.4-8.5,15.5c-14.1,23.7-28.4,47.4-42.8,70.9c-6.5,10.5-12.6,21.1-19,31.7
	c-7.9,13.1-15.9,26.1-23.9,39.2c-5.4,8.8-10.8,17.5-16.2,26.3c-0.5,0.9-1,1.7-1.4,2.7c-1.2,2.2-1.1,5,0.4,7.1c0.7,1,1.3,2.1,2.1,3.1
	c8.3,10.5,15.8,21.6,23.9,32.3c5.8,7.5,11.5,15,17.3,22.5c0.3,0.3,0.4,0.6,0.4,1c-1.3,0.6-2.7,1-4.1,1.1c-2.1,0.4-3.9,2.1-5.7,2.1
	s-3.5-1.7-5.5-2.1c-1.6-0.3-3.2-0.8-4.9-1.1c-2.4-0.6-4.8-0.6-7.2,0c-1.5,0.3-2.9,0.8-4.4,1c-2.4,0.4-4.6,1.4-6.5,2.9
	c-0.5,0.4-1.1,0.7-1.7,1.2c-3.5-3.7-7.9-4.9-12.7-4.8c-3-0.1-6,0.7-8.5,2.3c-0.4,0.4-1.1,0.4-1.6,0c-2.3-1.7-5.1-2.1-7.8-2.3
	c-3.5-0.3-7-0.7-10.4,0.5c-1.2,0.4-1.5,0-1.9-1.1c-1.3-4.1-4.6-7.3-8.8-8.4c-3.6-1.1-7.4-1.2-11-0.2c-4.1,1.1-7.5,3.9-9.2,7.7
	c-0.3,0.8-1,1.4-1.9,1.6c-2.7,0.7-5.6,1-7.9,2.8c-0.4,0.3-1,0.3-1.4-0.1c-3.3-2.3-7.2-2.5-10.9-3.3c-2.5-0.4-5-0.2-7.4,0.6
	c-0.8,0.3-1.6,0.4-2.5,0.2c-2.1-0.6-4.3-0.5-6.4,0.2c-1.1,0.3-2.3,0.3-3.4,0c-4.1-1.2-7.9,0-11.6,1.4c-0.6,0.3-1.4,0.3-2,0
	c-3.8-1.4-7.5-2.6-11.6-1.4c-1.7,0.5-3.4,1.3-5,1.3s-3.3-0.9-5-1.3c-2.6-0.6-5.2-1.4-7.9-1.1c-0.5,0.1-1-0.2-1.1-0.7
	c-1-2.4-2.7-4.4-4.8-5.9c-1.1-0.7-2.4-1.2-3.6-1.5c-5.4-1.9-10.7-1.2-15.9,0.6c-3.2,1.1-5.9,3.3-7.7,6.1c-1.8,2.5-1.8,2.5-4.7,1.8
	c-2.8-0.7-5.7-0.6-8.4,0.2c-1.3,0.2-2.6,0.3-3.9,0.2c-4,0-7.9-0.5-11.9-0.2c-1.4,0.2-2.8,0.5-4.1,0.9c0.6-1.2,1.3-2.3,2.2-3.2
	c4.6-5.9,8.9-12.1,11.4-19.2c1.1-3.2,1.8-6.6,1.9-10c0.3-10.7-1.8-21.2-6.1-31c-1.6-3.6-2.9-7.3-4-11c-2.2-7.2-1.2-14.9,2.6-21.4
	c4.3-7.6,8.4-15.3,12.1-23.2c1.8-3.9,4.4-7.5,6.5-11.2c3.1-5.9,5.8-11.9,8.1-18.2c4.1-11.3,9.6-22,16.4-31.9c2.5-3.6,5.5-6.7,9-9.3
	c5.8-4.2,10.7-2.6,15.3,2.1c3.6,3.7,5.1,8.4,4.8,13.7c-0.1,3.1,0,6.3,0.1,9.5c0.1,5.6-0.1,11.1-0.7,16.7c-0.5,4-0.9,7.9-1.3,11.9
	c-0.5,5.3-1.5,10.5-2.9,15.6c-1.1,4.1-1.7,8.3-1.9,12.5c-0.3,8.4,3.2,14.9,9.5,20.2c5.4,4.4,11.4,7.7,18,9.9
	c7.2,2.6,14.7,4.1,22.4,4.5c4,0.2,8,0.3,12,0.5c6.1,0.1,12.1,1,18,2.5c3.5,1,6.8,2.6,9.8,4.8c7.7,5.7,15,11.9,21.8,18.6
	c3.5,3.4,8.7,4.4,13.2,2.4c3.7-1.7,5.3-4.9,5.8-8.7c0.6-5.2,0.6-10.4,0.1-15.7c-0.4-5.6-1.3-11.2-2.5-16.7
	c-1.5-6.8-4.3-13.1-8.3-18.8c-0.9-1.2-1.6-2.6-2.5-3.8c-1.8-2.4-1.3-4.7,0.2-6.9c0.7-1,1.4-1.8,2.3-2.7c6.7-6.8,13.5-13.6,20.2-20.5
	c9.1-9.4,18.3-18.7,27.5-28c24.2-24.7,48.8-49,73.3-73.4c4.3-4.3,8.2-8.9,13-12.8c0.9-0.7,1.9-1.4,2.8-2.1
	C536.3,32.9,536.5,33.1,536.4,33.7z"/>
<path class="st1" d="M495.7,302.2c4-4.2,10.7-4.3,14.9-0.3c0.3,0.3,0.6,0.6,0.8,0.9c2.4-2.9,6.1-4.3,9.8-3.7
	c4.3,0.4,7.2,3.1,7.6,7.5c0.2,2.5,0.2,5,0.2,7.5c0,3.8,0,7.5,0,11.2c0,0.8,0.3,1.9-0.7,2.2c-1.1,0.4-2.3,0.4-3.4-0.1
	c-0.8-0.4-0.5-1.3-0.5-2.1c0-4.8,0-9.5,0-14.2c0-0.9,0-1.8,0-2.8c-0.2-3-1.2-4.5-3.6-5c-2.9-0.7-5.6,0.3-7,2.5
	c-1,1.8-1.4,3.8-1.3,5.8c0,4.5,0,9,0,13.5c0,0.8,0.3,1.9-0.5,2.3c-1.1,0.5-2.3,0.5-3.4,0.1c-0.8-0.2-0.6-1.1-0.7-1.7
	c0-2.2,0-4.3,0-6.5c0-3,0-6,0-9c0-0.6,0-1.2,0-1.8c-0.2-3.1-1.3-4.6-3.4-5.2c-2.7-0.6-5.4,0.4-7,2.7c-1,1.6-1.5,3.5-1.5,5.5
	c0,4.3,0,8.7,0,13c0,0.6,0,1.2,0,1.8c0.1,0.7-0.4,1.4-1.2,1.5c-0.1,0-0.3,0-0.4,0c-0.6,0-1.2,0-1.8,0c-0.7,0.1-1.3-0.5-1.4-1.2
	c0-0.1,0-0.2,0-0.2c0-0.4,0-0.8,0-1.2c0-7.5,0-15,0-22.5c0-0.2,0-0.5,0-0.8c0.1-1.7,0.3-2,1.8-2.1c2.1-0.1,2.3,0,2.6,1.9
	C495.6,301.8,495.6,302,495.7,302.2z"/>
<path class="st1" d="M368.7,302.5c0-3.8,0-7.2,0-10.6c0-0.7-0.2-1.6,0.7-2c1.1-0.4,2.3-0.4,3.4,0c0.4,0.2,0.6,0.6,0.5,1
	c0,0.6,0,1.2,0,1.8c0,10.7,0,21.3,0,32c0,0.3,0,0.7,0,1c-0.1,1.8-0.2,1.9-2.1,1.9c-0.2,0-0.5,0-0.8,0c-1.2,0.2-1.7-0.3-1.5-1.5
	c0.1-0.3,0-0.7-0.2-0.9c-0.2-0.2-0.5-0.1-0.6,0.1c0,0,0,0,0,0c-8.5,6.4-18.5,2.5-20.3-8c-0.6-3.4-0.4-6.9,0.8-10.1
	c2-6.3,8.7-9.7,15-7.7c1.5,0.5,3,1.3,4.2,2.3C367.9,302,368.1,302.1,368.7,302.5z"/>
<path class="st1" d="M194.2,314.1c0,1.4-0.2,2.8-0.5,4.1c-1.6,6.3-6.2,10.1-12.6,10.1s-10.9-3.5-12.7-9.6c-1.2-4-1-8.2,0.7-12
	c1.8-4.9,6.6-8,11.7-7.8c5.2-0.2,10,2.9,12,7.7C193.8,309.1,194.3,311.6,194.2,314.1z"/>
<path class="st1" d="M272.7,299c5.4-0.2,10.4,3.2,12.1,8.3c1.7,4.3,1.6,9.1-0.3,13.4c-2.2,5.1-6.3,7.7-11.8,7.7s-9.6-2.5-11.8-7.6
	c-2-4.5-2-9.6,0-14.1C262.9,301.9,267.6,298.8,272.7,299z"/>
<path class="st1" d="M472.9,299c5.4-0.2,10.4,3.2,12.1,8.3c1.6,4.2,1.6,9-0.2,13.2c-2.8,6.6-10.5,9.6-17.1,6.8
	c-3-1.3-5.5-3.7-6.8-6.7c-1.8-4.4-1.8-9.3,0-13.6C462.8,302,467.6,298.8,472.9,299z"/>
<path class="st2" d="M106.3,302c2.5-2.4,6-3.5,9.4-3c4.6,0.5,7.3,2.9,8.2,7.4c0.2,1.1,0.3,2.1,0.2,3.2c0,5.2,0,10.3,0,15.5
	c0,2.5-0.1,2.5-2.2,2.5s-2.4-0.1-2.4-2.4c0-4.7,0-9.5,0-14.2c0-1.2-0.1-2.5-0.4-3.7c-0.4-2.3-2.4-4-4.7-4.1
	c-4.3-0.5-7.7,2.3-8.4,6.7c-0.1,1-0.2,2-0.1,3c0,4.2,0,8.3,0,12.5c0,0.8,0.2,1.9-0.8,2.1c-1.1,0.4-2.3,0.3-3.4-0.2
	c-0.3-0.2-0.4-0.5-0.5-0.8c-0.1-0.5-0.1-1-0.1-1.5c0-7.6,0-15.1,0-22.7c0-2.4,1.8-3.5,4-2.5C106.1,300.2,105.8,301.3,106.3,302z"/>
<path class="st2" d="M222.3,302c2.4-2.3,5.7-3.3,8.9-3c5.4,0.4,8.4,3.3,8.9,8.6c0.1,1,0.1,2,0.1,3c0,4.7,0,9.3,0,14c0,3,0,3-2.2,3
	s-2.4,0-2.4-2.9c0-4.6,0-9.2,0-13.7c0-1.2-0.1-2.5-0.4-3.7c-0.4-2.3-2.4-4-4.7-4.1c-4.3-0.5-7.7,2.3-8.4,6.7c-0.1,1-0.2,2-0.1,3
	c0,4.2,0,8.3,0,12.5c0,2.1-0.2,2.2-2.3,2.3c-2.3,0-2.4-0.1-2.4-2.4c0-7.7,0-15.5,0-23.2c0-1.1-0.1-2.2,1.5-2.4
	c2.2-0.3,2.8,0,3.3,1.8C222.1,301.7,222.2,301.9,222.3,302z"/>
<path class="st3" d="M324.4,302.2c3-3,6.4-3.6,10.1-3.1c4,0.3,7.2,3.3,7.7,7.3c0.3,2.2,0.4,4.5,0.3,6.7c0,4.1,0,8.2,0,12.2
	c0,0.8,0.2,1.9-0.9,2.1c-1.1,0.4-2.3,0.3-3.4-0.2c-0.7-0.4-0.5-1.4-0.5-2.1c0-4.5,0-9,0-13.5c0-1,0-2-0.1-3
	c-0.3-4.1-2.9-6.1-6.9-5.6c-2.9,0.3-5.3,2.4-6,5.3c-0.4,1.3-0.6,2.6-0.5,3.9c0,4.2,0,8.5,0,12.7c0,0.8,0.4,1.9-0.6,2.3
	c-1.1,0.4-2.3,0.4-3.4,0c-0.4-0.2-0.6-0.6-0.6-1c0-0.4,0-0.8,0-1.2c0-7.7,0-15.3,0-23c0-0.8-0.3-1.8,0.6-2.3
	c1.1-0.5,2.3-0.5,3.4-0.1C324.5,300.2,324.1,301.2,324.4,302.2z"/>
<path class="st3" d="M90.5,325c-2.8,2.7-6.7,4-10.6,3.3c-3.7-0.3-6.7-3.1-7.3-6.8c-0.3-1.2-0.4-2.5-0.4-3.7c0-5.2,0-10.5,0-15.7
	c0-0.8-0.2-1.9,0.8-2.1c1.1-0.4,2.3-0.3,3.4,0.2c0.8,0.4,0.5,1.3,0.5,2.1c0,4.2,0,8.5,0,12.7c0,1.2,0,2.5,0.1,3.7
	c0.2,2.3,0.8,4.5,3.4,5.2c2.8,0.8,5.5,0.7,7.6-1.7c1.9-2.2,2.4-4.9,2.5-7.7c0.1-4,0-8,0-12c0-2.7,0.5-3.2,3.2-2.8
	c0.7,0,1.3,0.5,1.4,1.2c0,0.1,0,0.1,0,0.2c0,8.4,0,16.8,0,25.2c0.1,0.7-0.4,1.3-1.1,1.3c-0.1,0-0.2,0-0.4,0c-0.5,0-1,0-1.5,0
	c-1.2,0.2-1.7-0.4-1.5-1.6C90.6,325.7,90.6,325.3,90.5,325z"/>
<path class="st3" d="M308.9,325.2c-2.8,2.6-6.6,3.8-10.4,3.1c-3.7-0.3-6.7-3.1-7.3-6.8c-0.2-1.1-0.4-2.1-0.4-3.2c0-5.5,0-11,0-16.5
	c0-1.9,0.3-2.1,2.5-2.1c2,0,2.2,0.2,2.2,2.1c0,5,0,10,0,15c-0.1,1.3,0.1,2.7,0.5,4c0.5,1.6,1.8,2.9,3.5,3.2c3.6,1.2,7.5-0.8,8.7-4.3
	c0,0,0,0,0,0c0.7-1.8,1-3.7,1-5.6c0-4.1,0-8.2,0-12.2c0-1.9,0.2-2,2.2-2.1c2.2,0,2.4,0.1,2.4,2.1c0,7.9,0,15.8,0,23.7
	c0,0.7,0.2,1.7-0.7,1.9c-1.1,0.4-2.3,0.4-3.4,0C308.9,327.1,309.6,326.1,308.9,325.2z"/>
<path class="st1" d="M394.7,300.1c1-0.8,2.2-0.3,3.4-0.3s1,1,1.2,1.6c1.9,4.9,3.8,9.8,5.7,14.6c0.5,1.6,1.2,3.1,2,4.5l5.2-14.4
	l1.9-5.2c0.2-0.6,0.3-1.4,1.2-1.3s2.2-0.4,3.1,0.4c0.3,0.3,0.4,0.8,0.3,1.1c-0.1,0.5-0.3,0.9-0.5,1.4c-3.5,9.3-7,18.5-10.5,27.8
	c-0.4,1.2-1,2.3-1.5,3.4c-1.8,3.6-4.9,4-8.8,3.4c-0.4,0-0.8-0.4-0.7-0.8c0-0.6,0-1.2,0-1.8c-0.2-0.7,0.2-1.3,0.9-1.5
	c0.2,0,0.4,0,0.6,0c1.3,0.1,2.7,0.4,3.7-0.8c1.2-1.6,2.1-3.4,2.4-5.4c0-0.7-0.2-1.5-0.6-2.1c-2.8-7-5.6-14.1-8.4-21.1
	c-0.3-0.6-0.5-1.2-0.6-1.9C394.2,301.3,394.2,300.6,394.7,300.1z"/>
<path class="st1" d="M144.4,314c-0.1,2.4,0.6,4.8,2,6.8c1.6,2.6,4.6,3.9,7.6,3.3c3.1-0.5,4.9-2.6,5.7-5.6c0.1-0.6,0-1.5,0.7-1.7
	c1.1-0.3,2.3-0.2,3.5,0.1c0.5,0.3,0.8,0.9,0.6,1.5c-0.6,5.2-4.8,9.4-10,9.9c-6.7,0.7-12-2.8-13.9-9.2c-1.3-4-1.1-8.3,0.5-12.2
	c3.4-8.1,11.9-9.3,17.5-6.7c3,1.3,5.1,4,5.6,7.2c0.3,1.8,0,2.1-1.6,2.2c-2.3,0.1-2.3,0.1-3.2-2c-1.9-4.8-7.6-6-11.5-2.4
	C145.7,307.1,144.4,310.1,144.4,314z"/>
<path class="st1" d="M431.7,313.7c-0.1-1.7,0.1-3.5,0.6-5.1c2.4-7.9,9.5-11.1,16.9-8.9c3.3,0.9,5.8,3.6,6.6,7c0.7,2.6,0.4,2.9-2.2,3
	c-1.2,0-2-0.2-2.3-1.5c-1.5-6.3-9.3-6.1-12.5-2.1c-1.4,1.8-2.2,3.9-2.4,6.2c-0.4,2.9,0.2,5.9,1.8,8.4c1.6,2.7,4.6,4.1,7.7,3.6
	c2.8-0.4,5-2.6,5.8-5.8c0.1-0.6-0.2-1.5,0.8-1.5s2.3-0.4,3.4,0.2c0.5,0.4,0.6,1.1,0.3,1.6c-0.9,4.5-3.1,8-7.7,9.3
	c-6.1,1.8-12.7-0.5-15.5-7.1C432,318.6,431.6,316.1,431.7,313.7z"/>
<path class="st2" d="M247.7,299.7c0.2-1.6,0.2-3.1,0.4-4.5c0.4-3.2,2.1-4.9,5.3-5.4c0.9-0.1,1.8-0.2,2.7-0.1c2.2,0.1,3,1.4,2.2,3.5
	c-0.3,0.6-0.9,1-1.6,0.9c-4,0-4.4,0.5-4.2,4.4c-0.2,0.5,0.1,1.1,0.7,1.3c0.2,0.1,0.5,0.1,0.7,0c0.5,0,1,0,1.5,0c2.1,0,3,1.5,2.2,3.5
	c-0.3,0.5-0.8,0.8-1.4,0.8c-1.1,0.1-2.6-0.5-3.3,0.3c-0.8,1-0.3,2.6-0.3,3.9c0,5.7,0,11.3,0,17c0.1,1.4-0.9,2.7-2.3,2.8
	c-0.6,0.1-1.2-0.1-1.7-0.4c-0.6-0.4-0.9-1-0.8-1.7c0-2.2,0-4.3,0-6.5c0-4.3,0-8.7,0-13c0-2.1,0.5-2.5-2.2-2.4h-0.2
	c-1.8-0.1-2-0.4-2-2.1s0.3-2.1,2.2-2.2C246.1,299.7,246.8,299.7,247.7,299.7z"/>
<path class="st4" d="M394.7,300.1v1.8c-1.2,0.3-0.3,2-1.6,2.2c-0.9,0.1-1.8,0.2-2.7,0.4c-3.6,0.9-6.2,4.1-6.2,7.8
	c-0.1,4.2,0,8.5-0.1,12.7c0,2.4-1.6,3.5-3.9,2.6c-0.4-0.1-0.7-0.5-0.8-0.9c-0.1-0.4-0.1-0.8-0.1-1.2c0-7.8,0-15.7,0-23.5
	c0-2,0.3-2.2,2.1-2.3c2.1,0,2.2,0.1,2.3,2.2c0,0.4,0,0.8,0,1.6C387,300.5,390.3,298.5,394.7,300.1z"/>
<path class="st4" d="M203.2,303.2c0.7-0.2,1.3-0.6,1.8-1.3c1.9-1.6,4.4-2.5,6.9-2.5c1.2,0,1.7,0.5,1.5,1.6c0,0.2,0,0.3,0,0.5
	c0,2.3,0,2.3-2.3,2.6c-4.2,0.4-7.4,3.8-7.5,8c-0.1,0.8,0,1.7,0,2.5c0,3.6,0,7.2,0,10.8c0,0.8,0.2,1.9-0.8,2.1
	c-1.1,0.4-2.3,0.3-3.4-0.2c-0.5-0.4-0.6-1-0.5-1.6c0-1.4,0-2.8,0-4.2c0-6.5,0-13,0-19.5c0-2.1,0.2-2.4,2.2-2.4s2.1,0.1,2.2,2.1
	C203.2,302.2,203.2,302.7,203.2,303.2z"/>
<path class="st2" d="M134.8,313.9c0,3.8,0,7.7,0,11.5c0,0.8,0.2,1.9-0.8,2.1c-1.1,0.4-2.3,0.3-3.4-0.2c-0.7-0.4-0.5-1.2-0.5-1.8
	c0-3.3,0-6.7,0-10c0-4.4,0-8.8,0-13.2c0-2.3,1.5-3.3,3.8-2.5c1,0.4,0.9,1.3,0.9,2.1C134.8,305.9,134.8,309.9,134.8,313.9z"/>
<path class="st5" d="M419.3,324.1c0-3.4,0-3.4,3.4-3.4c2.2,0,2.4,0.2,2.4,2.4c0,0.2,0,0.5,0,0.7c0,4.1,0.5,3.9-4.1,3.9
	c-0.8,0.2-1.5-0.4-1.7-1.1c0-0.2,0-0.3,0-0.5C419.3,325.4,419.3,324.8,419.3,324.1z"/>
<path class="st6" d="M134.8,293.2c0,0.2,0,0.3,0,0.5c0,2.4-1.6,3.5-3.9,2.5c-0.6-0.2-0.9-0.8-0.8-1.4c0-0.9,0-1.8,0-2.7
	s-0.3-1.8,0.7-2.2c1.1-0.4,2.3-0.4,3.4,0c0.4,0.2,0.6,0.6,0.6,1C134.7,291.7,134.7,292.4,134.8,293.2L134.8,293.2L134.8,293.2z"/>
<path class="st7" d="M536.4,33.7l-0.6-0.6c0.2-0.3,0.5-0.6,0.8-0.7c0.1,0,0.3,0,0.3,0.2c0,0,0,0,0,0.1
	C537,33.1,536.8,33.4,536.4,33.7z"/>
<path class="st8" d="M536.7,32.4c0.1-0.2,0.3-0.4,0.5-0.2s0,0.3-0.2,0.4C536.8,32.5,536.7,32.5,536.7,32.4z"/>
<path class="st0" d="M538.3,412.1c0,0.6,0,1.2,0,1.7c-0.3,3.1-1.7,4.5-4.8,5c-5.9,1.1-11.9-0.9-16-5.3c-3.8-3.9-7-8.2-9.5-13
	c-2.4-4.5,1.3-9.6,5.1-10.2c6.2-1.1,11.6,0.2,16.1,4.9c2.4,2.3,4.6,4.8,6.5,7.5C537.5,405.4,538.5,408.7,538.3,412.1z"/>
<path class="st0" d="M274.2,116.6c-0.8,3.8-1.5,7.6-2.2,11.4c-0.7,3.8-1.2,7.7-1.4,11.6c-0.5,8.8-0.8,17.6-2.8,26.2
	c-0.7,2.9-1.6,5.8-2.8,8.5c-0.8,1.8-4.1,3.3-5.9,2.8c-0.5-0.2-0.8-0.6-0.9-1.1c-2.3-6-4.2-12.1-3.9-18.6c0.3-2.9,1-5.7,2-8.4
	c3.3-8.8,7.1-17.4,11.5-25.7C269.2,120.5,271.5,118.2,274.2,116.6z"/>
<path class="st0" d="M368.7,313.9c0,1.6-0.2,3.1-0.7,4.6c-0.9,3.4-4.1,5.8-7.6,5.7c-3.5,0-6.1-1.9-7.4-5.6c-1.2-3.3-1.1-7,0.2-10.3
	c1.2-3.3,3.7-5.1,6.9-5.2c3.4-0.1,6.4,1.9,7.6,5.1C368.4,310,368.7,312,368.7,313.9z"/>
<path class="st0" d="M172.5,313.4c0-2.2,0.5-4.4,1.7-6.3c2.1-3.8,6.8-5.1,10.6-3c1.3,0.7,2.3,1.7,3,3c2.5,4,2.5,9.1,0.1,13.1
	c-2,3.8-6.8,5.2-10.6,3.2c-1.3-0.7-2.4-1.8-3.2-3.2C172.9,318.1,172.4,315.8,172.5,313.4z"/>
<path class="st0" d="M281.3,313.7c0.1,2.3-0.5,4.5-1.6,6.5c-2,3.8-6.7,5.3-10.6,3.2c-1.4-0.7-2.6-1.9-3.3-3.3
	c-2.3-3.9-2.3-8.7,0-12.7c1.3-2.7,4.1-4.4,7.1-4.2c2.9,0,5.6,1.7,6.8,4.3C280.8,309.3,281.3,311.5,281.3,313.7z"/>
<path class="st0" d="M481.4,313.8c0.1,2.2-0.5,4.3-1.5,6.2c-1.3,2.7-4.1,4.3-7.1,4.2c-2.9,0.1-5.6-1.6-6.9-4.2
	c-2.2-3.9-2.2-8.6-0.1-12.5c1.3-2.7,4-4.4,7-4.4c3,0,5.7,1.7,7,4.3C480.9,309.4,481.4,311.6,481.4,313.8z"/>
</svg>
